<?xml version="1.0" encoding="utf-8"?>
<!-- Generator: Adobe Illustrator 19.0.0, SVG Export Plug-In . SVG Version: 6.00 Build 0)  -->
<svg version="1.1" xmlns="http://www.w3.org/2000/svg" xmlns:xlink="http://www.w3.org/1999/xlink" x="0px" y="0px"
	 viewBox="0 0 500 500" style="enable-background:new 0 0 500 500;" xml:space="preserve">
<style type="text/css">
	.st0{fill:url(#SVGID_1_);}
	.st1{fill:url(#SVGID_2_);}
	.st2{fill:url(#SVGID_3_);}
	.st3{fill:url(#SVGID_4_);}
	.st4{fill:url(#SVGID_5_);}
	.st5{fill:url(#SVGID_6_);}
	.st6{fill:url(#SVGID_7_);}
	.st7{fill:url(#SVGID_8_);}
	.st8{fill:#250600;}
</style>
<g id="BACKGROUND">
	<radialGradient id="SVGID_1_" cx="130.53" cy="147.105" r="384.4716" gradientUnits="userSpaceOnUse">
		<stop  offset="0" style="stop-color:#FCB250"/>
		<stop  offset="4.353376e-002" style="stop-color:#F9AC4E"/>
		<stop  offset="9.928527e-002" style="stop-color:#EF9C47"/>
		<stop  offset="0.1614" style="stop-color:#DF823B"/>
		<stop  offset="0.1896" style="stop-color:#D67435"/>
		<stop  offset="1" style="stop-color:#B14D22"/>
	</radialGradient>
	<rect class="st0" width="500" height="500"/>
</g>
<g id="OBJECTS">
	<g id="XMLID_1_">
		<g id="XMLID_2_">
			<linearGradient id="SVGID_2_" gradientUnits="userSpaceOnUse" x1="305.4264" y1="232.6334" x2="352.7042" y2="373.5573">
				<stop  offset="0" style="stop-color:#F9BE58"/>
				<stop  offset="0.1964" style="stop-color:#E9A34C"/>
				<stop  offset="0.4159" style="stop-color:#DB8C41"/>
				<stop  offset="0.5524" style="stop-color:#D6833D"/>
				<stop  offset="1" style="stop-color:#C5652F"/>
			</linearGradient>
			<polygon class="st1" points="348.7,185.9 491.7,361.5 205.6,361.5 			"/>
			<linearGradient id="SVGID_3_" gradientUnits="userSpaceOnUse" x1="323.5841" y1="260.7149" x2="408.2508" y2="276.715">
				<stop  offset="0" style="stop-color:#F9BE58"/>
				<stop  offset="0.1964" style="stop-color:#E9A34C"/>
				<stop  offset="0.4159" style="stop-color:#DB8C41"/>
				<stop  offset="0.5524" style="stop-color:#D6833D"/>
				<stop  offset="1" style="stop-color:#C5652F"/>
			</linearGradient>
			<polygon class="st2" points="348.7,185.9 491.7,361.5 435.6,361.5 			"/>
		</g>
		<g id="XMLID_3_">
			<linearGradient id="SVGID_4_" gradientUnits="userSpaceOnUse" x1="185.493" y1="293.2043" x2="260.1597" y2="404.5377">
				<stop  offset="0" style="stop-color:#F9BE58"/>
				<stop  offset="0.1964" style="stop-color:#E9A34C"/>
				<stop  offset="0.4159" style="stop-color:#DB8C41"/>
				<stop  offset="0.5524" style="stop-color:#D6833D"/>
				<stop  offset="1" style="stop-color:#C5652F"/>
			</linearGradient>
			<polygon class="st3" points="233.1,241.8 332.8,364.1 133.4,364.1 			"/>
			<linearGradient id="SVGID_5_" gradientUnits="userSpaceOnUse" x1="207.6747" y1="252.4831" x2="300.3414" y2="336.4831">
				<stop  offset="0" style="stop-color:#F9BE58"/>
				<stop  offset="0.1964" style="stop-color:#E9A34C"/>
				<stop  offset="0.4159" style="stop-color:#DB8C41"/>
				<stop  offset="0.5524" style="stop-color:#D6833D"/>
				<stop  offset="1" style="stop-color:#C5652F"/>
			</linearGradient>
			<polygon class="st4" points="233.1,241.8 332.8,364.1 293.7,364.1 			"/>
		</g>
		<linearGradient id="SVGID_6_" gradientUnits="userSpaceOnUse" x1="250" y1="346.134" x2="250" y2="383.491">
			<stop  offset="0" style="stop-color:#FCB250"/>
			<stop  offset="0.2091" style="stop-color:#EA9443"/>
			<stop  offset="0.4207" style="stop-color:#DB7D39"/>
			<stop  offset="0.5524" style="stop-color:#D67435"/>
			<stop  offset="1" style="stop-color:#C35528"/>
		</linearGradient>
		<path class="st5" d="M0,345.2c15.6-0.8,31.2-1.7,46.6-0.5c12.1,1,23.9,3.3,36,3.6c15.4,0.3,30.7-4.3,46-3.3
			c14.4,1,27.5,7.6,41.9,8.9c22.8,2.2,45.6-4,68.8-4.1c15.6-0.1,31.6,2.5,46.5-0.2c7.5-1.4,14.3-4,21.7-5.4
			c32.3-6.2,65.7,10.9,99.3,8.3c7.6-0.6,15-2.2,22.7-2.5c18.3-0.6,35.5,6.2,53.8,5.7c5.7-0.2,11.2-1,16.7-1.9v26.3H0V345.2z"/>
		<linearGradient id="SVGID_7_" gradientUnits="userSpaceOnUse" x1="250" y1="356.7966" x2="250" y2="446.8244">
			<stop  offset="0" style="stop-color:#FCB250"/>
			<stop  offset="0.2091" style="stop-color:#EA9443"/>
			<stop  offset="0.4207" style="stop-color:#DB7D39"/>
			<stop  offset="0.5524" style="stop-color:#D67435"/>
			<stop  offset="1" style="stop-color:#C35528"/>
		</linearGradient>
		<path class="st6" d="M54.5,361c8.7,1,17.2,2.2,26.2,2.7c6.7,0.3,13.4,0.2,20,0.7c7.4,0.6,14.2,1.9,21.5,2.6
			c21.8,2.1,45.2-1.7,66.8,0.7c11.7,1.3,22.4,4.3,34.5,4.4c7.4,0,14.3-1.1,21.7-1.3c7.6-0.2,15.5,0.5,23,0
			c6.6-0.4,12.4-1.8,18.8-2.5c22.4-2.5,45.9,3.5,69.4,3.3c9.6-0.1,18.9-1.2,28.4-1.2c16.6,0,32.4,3.4,49,3.4
			c10.9,0,21.4-1.4,32.3-1.4c6.6,0,13.2,0.5,19.7,1c4.7,0.4,9.5,0.7,14.2,1.1v72.4H0v-90C18.5,357.4,36.8,358.8,54.5,361z"/>
		<linearGradient id="SVGID_8_" gradientUnits="userSpaceOnUse" x1="250" y1="322.7965" x2="250" y2="379.6667">
			<stop  offset="0" style="stop-color:#FCB250"/>
			<stop  offset="0.2091" style="stop-color:#EA9443"/>
			<stop  offset="0.4207" style="stop-color:#DB7D39"/>
			<stop  offset="0.5524" style="stop-color:#D67435"/>
			<stop  offset="1" style="stop-color:#C35528"/>
		</linearGradient>
		<path class="st7" d="M54.5,352.3c8.7,1,17.2,2.2,26.2,2.7c6.7,0.3,13.4,0.2,20,0.7c7.4,0.6,14.2,1.9,21.5,2.6
			c21.8,2.1,45.2-1.7,66.8,0.7c11.7,1.3,22.4,4.3,34.5,4.4c7.4,0,14.3-1.1,21.7-1.3c7.6-0.2,15.5,0.5,23,0
			c6.6-0.4,12.4-1.8,18.8-2.5c22.4-2.5,45.9,3.5,69.4,3.3c9.6-0.1,18.9-1.2,28.4-1.2c16.6,0,32.4,3.4,49,3.4
			c10.9,0,21.4-1.4,32.3-1.4c6.6,0,13.2,0.5,19.7,1c4.7,0.4,9.5,0.7,14.2,1.1v27.7c0,0-76.5-3-102-3c-33.5,0-89.4,7.1-149,7.5
			c-42.8,0.3-87.5-6.7-127-5.5C53.1,394.5,0,405,0,405v-56.9C18.5,348.8,36.8,350.2,54.5,352.3z"/>
		<path id="XMLID_4_" class="st8" d="M500,443.5c0,0-126.8-8-169.8-8c-40.3,0-120.8,5.9-192.2,6.5C64.2,442.6,0,431.5,0,431.5V500
			h500V443.5z"/>
		<path class="st8" d="M81.8,387c-0.1-0.1-0.1-0.2-0.2-0.3l-0.1-0.2c0-0.1-0.1-0.2-0.1-0.2l-0.5-1.9c-0.1-0.3-0.2-0.6-0.3-0.8
			c-0.1-0.3-0.3-0.5-0.4-0.7c0,0,0,0,0,0c0.1,0.1,0.2,0.1,0.3,0.2c0.2,0.1,0.3,0.2,0.5,0.3c0.2,0.1,0.3,0.2,0.5,0.3l0.4,0.2
			c0.1,0.1,0.2,0.1,0.3,0.2l2.8,1.6l-2.1-2.5c-0.1-0.1-0.1-0.1-0.2-0.2l-0.1-0.1c-0.1-0.1-0.1-0.2-0.2-0.3c-0.1-0.1-0.2-0.2-0.3-0.3
			c-0.1-0.2-0.3-0.3-0.5-0.5c0-0.1-0.1-0.1-0.1-0.2c0.1,0,0.2,0.1,0.2,0.1c0.1,0,0.1,0.1,0.2,0.1l0.1,0.1l0.6-0.8
			c0,0-0.1-0.1-0.3-0.3c-0.1-0.1-0.1-0.1-0.2-0.2c-0.1-0.2-0.3-0.3-0.5-0.6c-0.3-0.3-0.7-0.6-1.1-0.9c-0.2-0.2-0.5-0.4-0.8-0.5
			c0.2,0.1,0.5,0.2,0.6,0.3c0.1,0,0.1,0.1,0.2,0.1l2.5,1.5l-1.8-2.2c0,0-0.1-0.1-0.3-0.4l-0.1-0.1c-0.2-0.2-0.4-0.5-0.8-0.7
			c-0.2-0.1-0.4-0.3-0.6-0.5c-0.2-0.2-0.5-0.3-0.7-0.5c0,0-0.1-0.1-0.1-0.1l-0.4-0.8c0-0.1-0.1-0.2-0.2-0.4l-0.3-0.3
			c0-0.1-0.1-0.1-0.2-0.1c-0.2-0.1-0.4-0.3-0.6-0.5c-0.5-0.3-1-0.5-1.5-0.7l-0.2-0.1l2.9,1.1l-3.1-2.3c-0.1,0-0.1-0.1-0.2-0.2
			c-0.2-0.2-0.6-0.4-1.1-0.6c-0.4-0.2-1-0.4-1.7-0.6c-0.4-0.1-0.8-0.2-1.3-0.3l3.5-0.3l-2.8-0.6l-1.6-2.5c0,0-0.1-0.1-0.2-0.3
			c0-0.1-0.1-0.2-0.1-0.3c-0.1-0.2-0.2-0.3-0.3-0.5c-0.1-0.1-0.1-0.2-0.2-0.3c0.1,0.1,0.3,0.2,0.4,0.3c0.2,0.2,0.4,0.3,0.6,0.4
			c0.1,0.1,0.3,0.2,0.4,0.3c0.2,0.1,0.4,0.3,0.5,0.3c0.1,0,0.1,0.1,0.3,0.2c0,0,0.1,0.1,0.1,0.1l0.1-0.2l0.1,0l-0.1,0.3l1.8,1.2
			l-1.2-2c0,0,0-0.1-0.1-0.2c0-0.1-0.1-0.1-0.1-0.2c0,0,0-0.1,0-0.1c0.3,0.3,0.5,0.5,0.7,0.7c0.2,0.2,0.4,0.3,0.5,0.4l2.7,1.8
			l-1.6-2.3c0,0-0.1-0.1-0.1-0.2c-0.1-0.1-0.2-0.3-0.3-0.5l0,0c0.3,0.4,0.7,0.7,1,1c0.2,0.2,0.5,0.5,0.7,0.6l0.3,0.2
			c0.2,0.1,0.3,0.2,0.4,0.3l2.6,1.7l-1.5-2.3c-0.1-0.1-0.1-0.2-0.2-0.3c-0.1-0.1-0.2-0.2-0.3-0.4c0.1,0.1,0.2,0.2,0.3,0.3
			c0.3,0.3,0.7,0.4,0.9,0.6c0.2,0.1,0.3,0.2,0.4,0.2l0.3,0.1c0.1,0,0.2,0.1,0.2,0.1l2.3,1l-1.8-1.8c0,0-0.1-0.1-0.2-0.2
			c0,0-0.1-0.1-0.2-0.2l-0.3-0.3c0,0,0,0,0,0c0,0,0.1,0,0.1,0l0.2,0.1c0.4,0.1,0.8,0.3,1.2,0.3c0.2,0,0.3,0.1,0.5,0.1l0.1,0
			c0.2,0,0.3,0,0.5,0c0.3,0,0.6,0,0.8,0l0.1,0c0.2,0,0.2-0.1,0.2-0.1l2.1-0.4l-2-0.6c0,0-0.1,0-0.2-0.1c-0.1,0-0.2-0.1-0.3-0.2
			l-0.2-0.1c-0.1,0-0.1-0.1-0.2-0.1l-1.4-1l-0.2-0.1c-0.2-0.2-0.5-0.3-0.8-0.4c-0.3-0.1-0.5-0.2-0.7-0.3c0,0,0,0-0.1,0
			c0.1,0,0.2,0,0.3,0c0.2,0,0.4-0.1,0.6-0.1c0.2,0,0.4-0.1,0.6-0.1l0.5-0.1c0.1,0,0.2,0,0.3,0l3.2-0.4l-3.1-0.7
			c-0.1,0-0.2,0-0.3-0.1l-0.1,0c-0.1,0-0.2-0.1-0.3-0.1c-0.1,0-0.3-0.1-0.4-0.1c-0.2,0-0.5-0.1-0.7-0.1c-0.1,0-0.1,0-0.2,0
			c0.1,0,0.2,0,0.3,0c0.1,0,0.2,0,0.2,0l0.1,0l0-1c0,0-0.1,0-0.4-0.1c-0.1,0-0.2,0-0.3,0c-0.2,0-0.4-0.1-0.7-0.1
			c-0.4,0-0.9-0.1-1.4-0.1c-0.3,0-0.6,0-0.9,0c0.3-0.1,0.5-0.1,0.7-0.1c0.1,0,0.1,0,0.3,0l3-0.3l-2.8-0.7c0,0-0.2,0-0.5-0.1l-0.1,0
			c-0.3,0-0.6-0.1-1.1-0.1c-0.2,0-0.5,0-0.7,0c-0.3,0-0.6,0-0.9,0.1c0,0-0.1,0-0.1,0l-0.8-0.4c-0.1,0-0.2-0.1-0.3-0.1l-0.1,0
			c-0.1,0-0.2,0-0.3-0.1l-0.1,0c-0.1,0-0.1,0-0.2,0c-0.2,0-0.5,0-0.8,0c-0.6,0.1-1.1,0.2-1.6,0.3l-0.4,0.1l2.9-1l-3.6,0.1
			c-0.1,0-0.2,0-0.3,0c-0.3,0-0.7,0.1-1.3,0.2c-0.6,0.2-1.2,0.4-1.7,0.6c-0.4,0.2-0.8,0.4-1.2,0.6l2.6-2.4l-3.6,1.7
			c-0.1,0.1-0.2,0.1-0.4,0.2c-0.2,0.1-0.4,0.2-0.7,0.3c-0.4,0.2-1,0.5-1.5,0.8c-0.2,0.1-0.4,0.2-0.6,0.4c0.2-0.2,0.3-0.4,0.4-0.5
			c0.2-0.2,0.5-0.5,0.8-0.7c0.1-0.1,0.1-0.1,0.2-0.1l0.3-0.1l0.5-1l-1,0.1c-0.1,0-0.2,0-0.4,0.1c-0.3,0.1-0.7,0.3-1.2,0.6
			c-0.4,0.3-0.9,0.6-1.3,1c-0.4,0.4-0.8,0.8-1.2,1.2l0,0c0-0.1,0.1-0.1,0.1-0.2c0.1-0.2,0.2-0.4,0.2-0.4l1.9-3.9l-2.7,3.3
			c0,0-0.1,0.1-0.3,0.3c-0.1,0.1-0.2,0.2-0.3,0.4l-0.4,0.5c-0.2,0.2-0.4,0.4-0.6,0.6c-0.2,0.2-0.3,0.4-0.5,0.6
			c-0.2,0.2-0.4,0.5-0.6,0.7l-0.2,0.2c0.1-0.1,0.1-0.2,0.2-0.3l0.1-0.2c0.1-0.2,0.2-0.3,0.2-0.5c0.1-0.2,0.2-0.3,0.3-0.5l2.7-4.1
			l-3.5,3.4c-0.1,0.1-0.2,0.3-0.4,0.4c-0.2,0.2-0.4,0.3-0.6,0.6l-2.4,0.8l-0.1,0l-0.1-0.5l-0.2,0.7c-0.1,0.1-0.1,0.1-0.2,0.2
			c0,0,0,0,0,0c0-0.1,0-0.1,0-0.2c-0.1-0.3-0.2-0.6-0.3-0.8c-0.1-0.2-0.1-0.3-0.1-0.3l-1-1.9l0,0.8c0-0.2-0.1-0.3-0.2-0.4l-1-2.3
			l-0.1,1.5c-0.1-0.1-0.1-0.2-0.2-0.3l-0.1-0.2c-0.1-0.2-0.2-0.4-0.3-0.5l-1.3-1.9l0.2,1.4c-0.1-0.1-0.2-0.3-0.2-0.4
			c0-0.1-0.1-0.1-0.1-0.2c-0.1-0.1-0.2-0.3-0.3-0.4l-0.1-0.1c-0.1-0.1-0.1-0.1-0.1-0.1l-0.4-0.5c-0.2-0.3-0.3-0.5-0.4-0.7
			c-0.1-0.1-0.2-0.3-0.3-0.4c-0.1-0.1-0.1-0.2-0.2-0.3l-0.1-0.2c-0.1-0.1-0.1-0.2-0.2-0.3l-1.1-1.9l0.1,2c0,0,0,0.1,0,0.3
			c-0.1-0.1-0.2-0.3-0.3-0.4c-0.1-0.2-0.3-0.3-0.4-0.4c-0.1-0.1-0.1-0.1-0.2-0.2c-0.1-0.1-0.2-0.2-0.3-0.3c0,0-0.1-0.1-0.2-0.1
			l-1.9-1.7l1,2.2l0.1,0.2c0,0,0,0,0,0c-0.1-0.1-0.1-0.1-0.2-0.2c-0.1-0.1-0.1-0.1-0.2-0.2l-0.1-0.1c0,0-0.1-0.1-0.1-0.2l-1-1.4
			l0.1,1.6l0,0.4c0,0,0,0.1,0,0.1c0,0,0,0-0.1,0c-0.1-0.1-0.3-0.2-0.4-0.3c-0.1-0.1-0.2-0.1-0.3-0.2l-0.1-0.1
			c-0.3-0.1-0.6-0.2-0.9-0.3c-0.1,0-0.3-0.1-0.5-0.1c-0.1,0-0.2-0.1-0.3-0.1l-0.3-0.1c-0.1,0-0.1,0-0.2-0.1l-2.3-0.8l1.6,1.5
			l0.3,0.3c0.1,0.1,0.2,0.1,0.3,0.2c0.1,0.1,0.2,0.2,0.3,0.2c0.1,0.1,0.2,0.2,0.3,0.3c0.1,0.1,0.2,0.2,0.3,0.3
			c-0.2,0.1-0.4,0.1-0.6,0.2l-0.3,0.1c-0.2,0-0.3,0.1-0.5,0.1c-0.2,0-0.3,0.1-0.4,0.1h0c-0.1,0-0.1,0-0.2,0l-2.4-0.2l2.2,1.2
			c0,0,0.1,0.1,0.2,0.1l0.1,0c0.2,0.1,0.4,0.1,0.6,0.2c0.1,0,0.2,0,0.3,0l0.7,0.5c0.1,0,0.2,0.1,0.3,0.2c0.1,0,0.1,0.1,0.2,0.1
			c0.1,0,0.2,0.1,0.3,0.1c0.2,0.1,0.4,0.1,0.6,0.2l-0.9,0.1l-0.5-0.2l0.3,0.3l-0.1,0l-0.3-0.1l0.1,0.1l-0.8,0.1l1.4,0.3l0.5,0.3
			l1.8,1.5c0.1,0,0.1,0.1,0.2,0.2c0.1,0.1,0.2,0.2,0.4,0.3l0.1,0.1c0.1,0.1,0.3,0.2,0.4,0.3l0.2,0.1c0.1,0,0.2,0.1,0.2,0.1l0.2,0.4
			l-4.1-1.1l-1.7-1.1l0.7,1l-0.1-0.1l0.2,0.2l0.3,0.4c-0.1,0-0.1-0.1-0.2-0.1c-0.2-0.1-0.4-0.2-0.5-0.4l-0.2-0.1
			c-0.1-0.1-0.2-0.1-0.2-0.1c-0.2-0.1-0.4-0.2-0.6-0.3l-2-0.9c-0.1-0.1-0.2-0.1-0.3-0.1l-0.1,0c-0.1,0-0.1-0.1-0.3-0.1l-3.6-1.7
			l0.3,0.3l-0.2-0.1c-0.2-0.2-0.4-0.3-0.5-0.4l-3.3-1.9l2.4,2.5l0.1,0.1l0.2-0.2l-0.2,0.3c0.1,0.1,0.3,0.4,0.4,0.6
			c0.1,0.2,0.2,0.4,0.3,0.7l0.2,0.4c0,0,0,0,0,0.1c-0.2-0.2-0.3-0.4-0.5-0.5l-0.4-0.4c-0.3-0.2-0.5-0.5-0.8-0.7
			c-0.2-0.1-0.4-0.3-0.5-0.4c-0.1-0.1-0.2-0.2-0.4-0.3l-0.4-0.3c-0.1,0-0.1-0.1-0.2-0.1l-2.8-2.4l1.9,2.8c0,0,0.1,0.1,0.2,0.3
			l0.1,0.1c-0.1-0.1-0.2-0.1-0.2-0.2c-0.2-0.1-0.4-0.3-0.6-0.4c-0.1-0.1-0.2-0.1-0.3-0.2l-0.2-0.1c-0.3-0.2-0.6-0.3-1-0.4l-2.8-0.2
			l2.3,1.1l0.2,0.1l0.1-0.1l0.1,0l-0.1,0.1c-0.1-0.1-0.3-0.1-0.4-0.2c-0.2-0.1-0.4-0.2-0.6-0.2c-0.2-0.1-0.5-0.2-0.7-0.3l-0.2-0.1
			c-0.3-0.1-0.5-0.2-0.7-0.3c-0.2-0.1-0.3-0.1-0.3-0.1l-3.2-1.5l2.7,2.3c0,0,0.1,0.1,0.3,0.3c0.1,0.1,0.2,0.2,0.3,0.3l0.1,0.1
			c0.1,0.1,0.2,0.2,0.3,0.3l0.2,0.2c0.3,0.2,0.6,0.4,0.9,0.7c0.4,0.3,0.9,0.6,1.4,0.9c0.2,0.1,0.4,0.2,0.6,0.3
			c-0.2,0-0.4,0.1-0.5,0.1c-0.1,0-0.2,0.1-0.3,0.1c-0.2,0-0.3,0.1-0.4,0.1c-0.1,0-0.1,0.1-0.3,0.1c-0.1,0-0.2,0.1-0.2,0.1l-1.9,0.6
			l2,0.4c0,0,0.1,0,0.3,0.1l-2.8,1.2l3.5-0.4c0,0,0.1,0,0.2,0c0.1,0,0.4,0,0.7,0c0.1,0,0.3,0,0.5,0.1c0.2,0,0.4,0.1,0.6,0.1
			c0.4,0.1,0.9,0.2,1.3,0.2l0.2,0c-0.1,0-0.1,0.1-0.2,0.1c-0.1,0.1-0.2,0.1-0.2,0.1l-2,1.6l2.4-0.7c0,0,0.1,0,0.2,0
			c0.1,0,0.3,0,0.5,0l0.2,0c0.2,0,0.4,0,0.7,0l1,0c-0.2,0-0.3,0.1-0.5,0.1l-0.5,0.1c-0.1,0-0.3,0.1-0.4,0.1l-4.5,0.9l4.2,0.2l0.8,0
			c0.2,0,0.4,0,0.5,0l0.6,0c0.2,0,0.5,0,0.7,0c0.2,0,0.3,0,0.5,0c-0.1,0-0.2,0.1-0.2,0.1l-4.1,1.2l4.3-0.3l0.7,0.3l-1,0.4l-0.5,0
			c-0.3,0-0.6,0-0.9,0c-0.2,0-0.3,0-0.5,0c-0.1,0-0.2,0-0.3,0l-0.2,0c-0.1,0-0.2,0-0.3,0l-2.2-0.1l1.7,1c0,0,0.1,0,0.3,0.1h0
			c-0.2,0-0.3,0-0.5,0.1c-0.2,0-0.4,0.1-0.6,0.1c-0.1,0-0.2,0-0.2,0.1c-0.1,0-0.3,0.1-0.4,0.1c-0.1,0-0.1,0-0.2,0.1l-2.5,0.7
			l2.4,0.4l0.2,0c0,0,0,0,0,0c-0.1,0-0.2,0-0.2,0.1c-0.1,0-0.2,0-0.3,0.1l-0.2,0c-0.1,0-0.1,0-0.2,0l-1.7,0.2l1.3,0.8l0.4,0.2
			c0,0,0.1,0,0.1,0.1c0,0,0,0-0.1,0c-0.2,0.1-0.3,0.1-0.5,0.2c-0.1,0.1-0.2,0.1-0.4,0.2l-0.1,0.1c-0.3,0.2-0.5,0.4-0.7,0.6
			c-0.1,0.1-0.2,0.2-0.3,0.3c-0.1,0.1-0.2,0.2-0.3,0.3l-0.2,0.2c-0.1,0-0.1,0.1-0.2,0.1l-1.9,1.5l2.2-0.5l0.8-0.2
			c0.1,0,0.2-0.1,0.4-0.1c0.1,0,0.3-0.1,0.4-0.1c0.1,0,0.3-0.1,0.4-0.1c-0.1,0.2-0.1,0.4-0.2,0.6l-0.1,0.3c0,0.2-0.1,0.3-0.1,0.4
			c-0.1,0.2-0.1,0.3-0.2,0.4c0,0.1-0.1,0.1-0.1,0.1l-1.5,1.9l2.2-1.2c0,0,0.1-0.1,0.2-0.1c0.1-0.1,0.3-0.2,0.5-0.4
			c0.1-0.1,0.1-0.1,0.2-0.2l0.8-0.4c0.1,0,0.2-0.1,0.3-0.2c0.1,0,0.1-0.1,0.2-0.1c0.1-0.1,0.1-0.1,0.3-0.2c0.1-0.1,0.3-0.3,0.5-0.4
			l-0.4,0.8l-0.3,0.2l0.3-0.1l-0.1,0.2l-0.2,0.2l0.1,0l-0.1,0.3l-2.4,0.9l4-0.5c0,0,0.1,0,0.2,0c0,0,0.1,0,0.1,0l0.4,0
			c0,0-0.1,0-0.1,0c-0.4,0.1-0.9,0.2-1.3,0.3l-0.3,0.1c-0.3,0.1-0.6,0.2-0.8,0.2l-4.9,1.6l4.4-0.4c0,0,0.2,0,0.4,0
			c0.1,0,0.3,0,0.5,0l0.4,0c-0.1,0-0.2,0-0.3,0l-0.3,0c-0.2,0-0.4,0-0.6,0.1c-0.2,0-0.4,0-0.6,0.1l-0.8,0.1l0,1l0.6,0
			c0.2,0,0.5,0,0.8,0l1,0c0.1,0,0.3,0,0.5,0c0.1,0,0.1,0,0.2,0l0,0c-0.4,0.1-0.9,0.2-1.3,0.3c-0.3,0.1-0.6,0.2-0.9,0.3
			c-0.2,0.1-0.3,0.1-0.5,0.2c-0.3,0.1-0.5,0.2-0.7,0.2l-0.3,0.1c-0.2,0.1-0.3,0.1-0.3,0.1l-3.5,1.3l3.7-0.4c0,0,0.1,0,0.4,0
			c0.1,0,0.2,0,0.3,0c0.2,0,0.4,0,0.6-0.1c0.1,0,0.1,0,0.2,0c-0.1,0.1-0.3,0.1-0.4,0.2c-0.2,0.1-0.4,0.2-0.6,0.3
			c-0.2,0.1-0.3,0.2-0.5,0.3l-0.2,0.1c-0.2,0.1-0.4,0.2-0.5,0.2c-0.1,0-0.1,0.1-0.2,0.1l-3,0.9l3.2,0.1c0.1,0,0.1,0,0.3,0l0.2,0
			c0.1,0,0.2,0,0.4,0c-0.2,0.2-0.4,0.3-0.6,0.5c-0.1,0.1-0.2,0.2-0.4,0.3c-0.2,0.1-0.3,0.3-0.5,0.4c-0.1,0.1-0.1,0.1-0.2,0.2
			l-2.5,2.4l3.2-1.5c0.1,0,0.2-0.1,0.3-0.1c0.1-0.1,0.3-0.1,0.5-0.2c0.1-0.1,0.2-0.1,0.3-0.2c-0.3,0.2-0.6,0.4-0.8,0.7
			c-0.3,0.3-0.6,0.6-0.9,1c-0.1,0.1-0.1,0.2-0.2,0.3l-1.5,3.5l1.9-2.1l0.8-0.8c0.2-0.2,0.4-0.3,0.6-0.4l0,0
			c-0.1,0.1-0.1,0.1-0.2,0.2c-0.1,0.1-0.2,0.2-0.2,0.3l-0.2,0.3c-0.1,0.2-0.3,0.4-0.4,0.6c-0.2,0.3-0.3,0.6-0.4,0.8l-0.1,0.3
			c-0.1,0.2-0.2,0.3-0.2,0.6l-1.4,3.7l2.1-2.7c0,0,0.1-0.1,0.2-0.2c0.1-0.1,0.1-0.1,0.2-0.2l0.3-0.4c-0.1,0.4-0.1,0.8-0.2,1.2
			c0,0.2,0,0.5-0.1,0.7l0,0.8c0,0.3,0,0.6,0,0.8l0,0.6l1,0c0,0,0-0.1,0.1-0.3c0-0.2,0.1-0.5,0.2-0.8l0-0.1c0.1-0.2,0.1-0.4,0.2-0.6
			l0.1-0.2c0.1-0.2,0.1-0.3,0.2-0.5c0,0,0,0,0-0.1c0,0,0,0.1,0,0.1l0,0.1c0.1,0.3,0.2,0.5,0.3,0.7l0.1,0.1c0,0.1,0.1,0.1,0.1,0.2
			l0.3-0.1l-0.2,0.2l1.4,2.3l-0.5-2.7c0,0,0-0.1,0-0.2c0-0.1,0-0.2,0-0.4l0-0.3c0-0.2,0-0.4,0-0.6c0-0.2,0-0.3,0-0.5l0.1-1.2
			c0-0.3,0-0.7,0-1c0,0.3,0.1,0.6,0.1,0.9c0,0.2,0.1,0.4,0.1,0.7c0,0.2,0.1,0.5,0.1,0.7c0,0.2,0.1,0.4,0.1,0.5
			c0,0.2,0.1,0.3,0.1,0.4l0.4,3.9l0.6-3.6l0.1-0.5c0-0.2,0.1-0.5,0.1-0.7l0-0.4c0-0.3,0-0.6,0.1-1c0-0.1,0-0.2,0-0.3l0.2,0l-0.2,0.2
			l1.3,2.7l-0.3-3.1c0,0,0-0.1,0-0.2c0-0.1,0-0.3,0-0.6l0-0.2c0-0.2,0-0.5,0.1-0.7l0-0.3c0-0.2,0-0.3,0.1-0.5
			c0.1,0.2,0.1,0.3,0.2,0.4l1.6,2.8L28,387l0-0.2c0-0.1,0-0.3,0-0.5l0,0l1.8,2l-1-2.6l0-0.1c0-0.1,0-0.4,0-0.5
			c0-0.2,0.1-0.4,0.1-0.7l0-0.1l0,0c0,0.1,0,0.2,0.1,0.3l0.1,0.2c0,0.1,0.1,0.3,0.1,0.4l1.3,3.2l-0.2-3.5c0-0.1,0-0.2,0-0.4l0-0.4
			c0-0.2,0-0.5,0-0.7l0-0.6c0-0.3,0-0.6,0-0.8c0,0.2,0,0.4,0.1,0.5c0.1,0.5,0.2,1,0.3,1.3c0.1,0.3,0.2,0.6,0.3,0.7l0.1,0.2
			c0.1,0.2,0.1,0.3,0.1,0.3l1.5,3.4l-0.5-3.7c0,0,0-0.1,0-0.4c0,0,0-0.2,0-0.3l0,0l1.4,4.1l-0.5-4.5c0,0,0-0.1,0-0.3l0-0.1l0-0.5
			c0-0.1,0-0.1,0-0.2c0-0.2,0.1-0.5,0.1-0.8l0.1-0.8c0-0.3,0.1-0.5,0.2-0.8c0-0.1,0-0.1,0-0.2l0,0.6c0,0.2,0,0.3,0,0.4
			c0,0.3,0,0.6,0,0.8c0,0.1,0,0.2,0,0.4l0.8,3.8l0.2-4c0,0,0-0.1,0-0.2l0-0.1c0-0.1,0.1-0.2,0.1-0.4c0,0,0,0,0,0l2.2,3.2l-1.3-3.6
			l0-0.1c0-0.1,0.1-0.3,0.1-0.4l0-0.1c0-0.1,0-0.1,0.1-0.2l0-0.1l0.1,0.3c0,0.1,0,0.1,0.1,0.2l0.3,0l-0.3,0.2l1.2,3.4l-0.3-3.7
			c0,0,0-0.1,0-0.2l0.1-0.6c0,0,0-0.1,0-0.1c0,0.3,0,0.5,0,0.8l0.4,2.9l0.6-2.6c0,0,0-0.1,0.1-0.2c0-0.1,0.1-0.3,0.1-0.4l0.1-0.3
			c0.1-0.2,0.2-0.4,0.2-0.6l0.2-0.4c0.1-0.3,0.3-0.7,0.4-1.1l0,0c0,0.1,0,0.2,0,0.2c0,0.2,0,0.4,0,0.5c0,0.2,0,0.4,0,0.6
			c0,0.2,0,0.3,0,0.5c0,0.1,0,0.2,0,0.3c0,0.2,0,0.3,0,0.3l-0.4,2.7l1.5-2.6c0-0.1,0.1-0.1,0.1-0.2c0.1-0.2,0.2-0.3,0.3-0.6l0.1-0.3
			c0,0,0,0,0,0c0,0.1,0,0.2,0.1,0.3l0.7,3.3l0.1-1l1.6-1.9c0-0.1,0.1-0.1,0.2-0.3c0.2-0.3,0.3-0.6,0.4-0.9c0.1-0.4,0.2-0.8,0.2-1.2
			c0,0,0,0,0,0c0,0,0,0,0.1,0.1l0.5,0.4c0.4,0.3,0.8,0.4,1.2,0.5c0.3,0,0.6,0,0.9-0.1c0,0.8,0,1.6,0.1,2.4l0,1.1
			c0,2.3,0.2,4.7,0.4,7c0.1,1,0.2,1.9,0.2,2.9c0.2,3.5,0.5,6.7,0.6,9.8c0,0.1,0,0.3,0,0.5c0.2,3.3,0.2,6.2,0.2,8.9l0,5.2
			c-0.1,9-0.2,25.7-0.1,28.6c0,0.1,0,0.2,0,0.3l0,0.3c0,1.3,1.1,2,2.2,2c0,0,0,0,0.1,0c1,0,2.1-0.6,2.2-1.9c0.1-1.7,0.2-16,0.2-24.5
			c0-2.9,0-5.2,0-5.9l0-0.1l0-0.1l0-3c0-2.2,0-4.6-0.2-7.5c0-0.1,0-0.1,0-0.2l0-0.3l0,0c0-0.6-0.1-1.1-0.1-1.7
			c-0.2-3.6-0.7-7.2-1.1-9.9c-0.1-0.8-0.2-1.6-0.3-2.4c-0.2-1.6-0.4-3.2-0.7-4.9c0-0.1,0-0.2,0-0.2c0-0.1,0-0.2-0.1-0.2
			c-0.1-0.7-0.2-1.4-0.4-2.1c-0.1-0.7-0.3-1.4-0.4-2c0-0.1,0-0.2-0.1-0.3c-0.1-0.8-0.2-1.5-0.4-2.3c0.3,0,0.5,0,0.7-0.1
			c0.2,0,0.4-0.1,0.6-0.2c0.2,0.3,0.4,0.5,0.5,0.8l0.2,0.3c0.1,0.2,0.3,0.4,0.4,0.6c0.2,0.3,0.4,0.5,0.5,0.8l0.6,1
			c0.1,0.2,0.2,0.3,0.2,0.4l1.7,4l-0.7-4.3c0,0,0-0.2,0-0.4c0-0.1,0-0.3-0.1-0.6c0-0.2-0.1-0.4-0.1-0.7c0-0.1-0.1-0.2-0.1-0.4
			l-0.1-0.4c0-0.2-0.1-0.3-0.1-0.5c0-0.1,0-0.1-0.1-0.2c0,0,0,0,0.1,0.1l0.1,0.1c0.3,0.4,0.7,0.7,0.9,1c0.2,0.3,0.4,0.6,0.6,0.8
			c0,0.1,0.1,0.1,0.1,0.2l1.8,3.4l-1-4.3c0-0.2-0.1-0.5-0.2-0.8c-0.1-0.2-0.2-0.5-0.3-0.8c0.2,0.2,0.3,0.4,0.5,0.5
			c0.1,0.2,0.3,0.3,0.4,0.4l0.2,0.2c0.1,0.2,0.3,0.3,0.4,0.4l0.2,0.3c0.2,0.3,0.4,0.5,0.5,0.6c0.1,0.1,0.1,0.2,0.1,0.2l1.9,3.3
			l-1-4.1c-0.1-0.3-0.2-0.7-0.3-1.1c0-0.1-0.1-0.2-0.1-0.3l0.5,0.6c0.2,0.2,0.3,0.4,0.5,0.6l0.1,0.1c0.1,0.1,0.2,0.3,0.3,0.4
			l0.2,0.3c0.2,0.2,0.3,0.4,0.4,0.5c0.1,0.2,0.2,0.3,0.2,0.3l0.9-0.4c0,0,0-0.1-0.1-0.4l-0.1-0.5c0-0.1-0.1-0.2-0.1-0.4
			c0,0.1,0.1,0.2,0.1,0.2c0.1,0.2,0.2,0.3,0.2,0.5c0.2,0.4,0.4,0.8,0.6,1.1l0.1,0.2c0.1,0.2,0.2,0.3,0.3,0.4l0.1,0.1
			c0.1,0.1,0.2,0.3,0.3,0.4c0.1,0.1,0.1,0.1,0.2,0.2l1.5,1.5l0.5,0.6l0.4,1.4l0.1-0.8l0,0.1l0-0.1l0-0.2l0.3,0.3l-0.2-0.5l0.1-0.8
			c0.1,0.2,0.1,0.5,0.2,0.7c0,0.1,0.1,0.2,0.1,0.3c0,0.1,0.1,0.1,0.1,0.2c0.1,0.1,0.1,0.2,0.2,0.3l0.1,0.1l0.2-0.1l0.1,0l-0.2,0.3
			l0.3,0.4c0,0.1,0,0.2,0.1,0.3c0.1,0.2,0.1,0.5,0.2,0.6l0,0.1c0,0.1,0.1,0.1,0.1,0.2l1.3,2.5l-0.4-2.8c0,0,0-0.1,0-0.2
			c0-0.1,0-0.3,0.1-0.5c0-0.1,0.1-0.3,0.1-0.4l0.1-0.3c0.1-0.2,0.1-0.4,0.1-0.6c0.1,0.1,0.2,0.2,0.3,0.3c0.1,0.1,0.2,0.2,0.3,0.3
			c0.1,0.1,0.2,0.2,0.3,0.3c0.1,0.1,0.2,0.2,0.3,0.3l1.9,1.9l-1.1-2.8c0-0.1-0.1-0.2-0.1-0.4c0-0.1-0.1-0.2-0.1-0.3
			c-0.1-0.3-0.2-0.6-0.4-0.9l-0.1-0.1c-0.1-0.1-0.1-0.2-0.2-0.3c-0.1-0.1-0.2-0.3-0.3-0.4c0,0,0,0-0.1-0.1c0,0,0.1,0,0.2,0l0.2,0
			l1.7,0l-1.1-0.8l0-0.5l1,0.4L71,383l0.1-1.2l0.1,0l-0.1-0.1l0.2-1.7c0,0,0-0.1,0-0.3c0-0.1,0-0.2,0-0.3c0-0.2,0.1-0.4,0.1-0.6
			c0-0.1,0-0.2,0-0.4c0,0.2,0.1,0.3,0.1,0.5c0.1,0.2,0.1,0.5,0.2,0.7c0,0.2,0.1,0.3,0.1,0.4c0.1,0.2,0.1,0.4,0.2,0.6
			c0,0.1,0.1,0.2,0.1,0.3c0,0.1,0,0.1,0,0.1l0.7,2.1l0.3-2.2c0,0,0-0.1,0-0.2c0-0.1,0-0.1,0-0.2c0,0,0-0.1,0-0.1
			c0,0.4,0.1,0.7,0.1,1c0,0.2,0.1,0.5,0.1,0.6l0.1,0.2c0,0.1,0,0.2,0.1,0.2l0.1,0l0.2,0l-0.3,0.2l0.9,2.7l0.1-2.9c0,0,0-0.1,0-0.2
			c0-0.1,0-0.3,0.1-0.6l0,0c0,0.5,0.1,1,0.2,1.4c0,0.3,0.1,0.7,0.2,1l0.1,0.3c0,0.2,0.1,0.4,0.1,0.5l1,3l0.2-2.7c0-0.1,0-0.2,0-0.4
			c0-0.1,0-0.3,0-0.4c0,0.1,0.1,0.3,0.1,0.4c0.1,0.4,0.3,0.8,0.4,1.1c0.1,0.2,0.1,0.3,0.2,0.5l0.2,0.3c0.1,0.1,0.1,0.2,0.1,0.2
			l1.3,2.2l-0.3-2.5c0,0,0-0.1,0-0.3c0-0.1,0-0.2,0-0.3l0-0.4c0,0,0,0,0,0c0,0,0,0.1,0,0.1l0.1,0.2c0.2,0.3,0.5,0.7,0.7,1
			c0.1,0.1,0.2,0.2,0.3,0.4l0.1,0.1c0.1,0.1,0.2,0.2,0.4,0.3c0.2,0.2,0.5,0.4,0.6,0.4l0.1,0.1c0.1,0.1,0.2,0.1,0.2,0.1l1.8,1
			l-1.2-1.7C81.9,387.3,81.8,387.2,81.8,387z M71.1,359.5L71.1,359.5L71.1,359.5L71.1,359.5z M27.5,374.5c-0.5,0-1,0-1.5,0.1
			c-0.4,0.1-0.7,0.2-1,0.2l-0.1,0c-0.1,0-0.2,0.1-0.3,0.1l-1,0.4l0.4-0.4l0.9-0.4l1.5-0.4c0.1,0,0.1,0.1,0.3,0.1
			c0.2,0.1,0.5,0.2,1,0.2H27.5z M28.8,373.1L28.8,373.1C28.8,373.1,28.8,373.1,28.8,373.1C28.8,373.1,28.8,373.1,28.8,373.1
			C28.8,373.1,28.8,373.1,28.8,373.1z M30.3,378.7c0,0.2-0.1,0.5-0.1,0.7c0,0,0,0.1,0,0.1c0-0.1,0-0.1,0-0.2l0-0.3
			c0-0.1,0-0.2,0-0.3c0.1-0.1,0.1-0.1,0.2-0.2C30.4,378.7,30.3,378.7,30.3,378.7z M33.2,369.3L33.2,369.3L33.2,369.3L33.2,369.3z
			 M33.3,376.8C33.3,376.8,33.3,376.8,33.3,376.8C33.3,376.7,33.3,376.7,33.3,376.8C33.4,376.8,33.3,376.8,33.3,376.8z M39.2,375.6
			L39.2,375.6L39.2,375.6L39.2,375.6L39.2,375.6z M39.8,364.1c-0.1-0.2-0.3-0.3-0.4-0.4c-0.1-0.1-0.1-0.1-0.2-0.2l-0.1-0.1
			c-0.1-0.1-0.1-0.1-0.2-0.1l-0.2-0.1c-0.1-0.1-0.2-0.1-0.3-0.2l-0.5-0.3c-0.1,0-0.2-0.1-0.2-0.1l-0.9-0.4l-0.3-0.2
			c-0.1-0.1-0.3-0.2-0.4-0.3l-0.3-0.2l3.5,1.7c0,0,0.1,0.1,0.3,0.2c0,0,0.1,0,0.1,0.1l0.1,0.7L39.8,364.1z M40.5,362.4l-0.5-0.1
			c0,0-0.1,0-0.1,0l-0.2-0.3c0.1,0.1,0.3,0.1,0.4,0.2c0.2,0.1,0.3,0.1,0.5,0.2c0.1,0,0.2,0.1,0.3,0.1
			C40.8,362.4,40.6,362.4,40.5,362.4z M42.3,378.1c0,0.2,0,0.4-0.1,0.6c0,0,0,0.1-0.1,0.2l-0.6,2l0.3-1.8c0-0.1,0-0.2,0-0.3l0.1-0.5
			c0-0.1,0-0.3,0.1-0.5l0-0.2c0-0.1,0.1-0.3,0.1-0.4l0.1-0.3c0-0.1,0-0.2,0.1-0.3c0,0.1,0,0.2,0,0.3l0,0.4c0,0.3,0,0.5,0,0.7
			L42.3,378.1z M50.6,363.7c-0.4,0.5-0.7,1-1,1.6l0-0.2c0-0.1,0-0.1,0-0.2c0.1-0.4,0.1-0.7,0.2-0.9c0-0.1,0.1-0.1,0.1-0.1l1.3-1
			C51.1,363.1,50.8,363.4,50.6,363.7z M58.1,364.5C58.2,364.5,58.2,364.5,58.1,364.5C58.2,364.5,58.2,364.5,58.1,364.5L58.1,364.5z
			 M60.5,363.9c-0.1-0.1-0.2-0.1-0.3-0.2c0.1,0,0.1,0,0.2-0.1l0.1,0.1C60.5,363.7,60.5,363.8,60.5,363.9c0.1,0,0.1,0,0.1,0.1
			C60.6,363.9,60.6,363.9,60.5,363.9z M63.4,371.1c0-0.1-0.1-0.1-0.1-0.2c0,0,0.1,0,0.1,0C63.4,370.9,63.4,371,63.4,371.1z
			 M64.3,367.2L64.3,367.2c0-0.1,0.1-0.1,0.1-0.1c0,0,0.1,0,0.1,0l0.1,0.1C64.5,367.1,64.4,367.1,64.3,367.2z M65.7,371.8
			c0-0.1-0.1-0.2-0.1-0.4c0.1,0,0.1,0,0.2,0.1l0,0.1C65.7,371.7,65.7,371.8,65.7,371.8c0,0.1,0.1,0.1,0.1,0.2
			C65.7,371.9,65.7,371.9,65.7,371.8z M66,367l-0.1-0.2l0.1,0c0.1,0,0.1,0.1,0.2,0.1C66.1,367,66.1,367,66,367z M67.9,366.5
			c0.1,0.1,0.2,0.2,0.3,0.3c0.2,0.1,0.3,0.3,0.4,0.3c-0.2,0-0.4-0.1-0.6-0.1L68,367c0,0-0.1-0.1-0.2-0.3c-0.1-0.1-0.1-0.2-0.2-0.3
			c0-0.1-0.1-0.1-0.1-0.2C67.6,366.3,67.7,366.4,67.9,366.5z M66.6,376.6l0-0.4l0,0.1c0,0.2,0.1,0.3,0.2,0.4
			C66.7,376.7,66.7,376.7,66.6,376.6z M67.7,368.6c-0.2,0-0.5-0.1-0.7-0.1c0.2-0.1,0.5-0.1,0.7-0.2c0.2,0,0.4-0.1,0.5-0.1l0.7,0.5
			C68.5,368.8,68.1,368.7,67.7,368.6z M68.1,377.4l0,0.1c0,0,0,0.1,0,0.1c0,0,0,0-0.1,0L68.1,377.4z M68.3,379
			c-0.1,0-0.1-0.1-0.2-0.1l0-0.1c0.1,0,0.1,0,0.1,0l0.4,0c0.1,0.2,0.1,0.3,0.1,0.3l0.1,0.5c0,0-0.1-0.1-0.1-0.1
			C68.6,379.3,68.4,379.1,68.3,379z M69.3,381.4c0,0-0.1-0.1-0.1-0.1l-0.2-0.1c-0.1,0-0.1-0.1-0.2-0.2c-0.1-0.1-0.1-0.1-0.2-0.2
			c0,0,0.1,0,0.1,0c0.1,0,0.2,0.1,0.2,0.1l0.4,0.1l0.1,0.4L69.3,381.4z M69.6,380.3l0-1.5c0,0,0-0.1,0-0.1l0.2,0c0,0.1,0,0.1,0,0.2
			c0,0.2,0.1,0.4,0.1,0.6c0,0.1,0.1,0.3,0.1,0.4c0.1,0.2,0.1,0.3,0.1,0.3l0.3,1.1L69.6,380.3z M69.6,378.4c0-0.1,0-0.2,0-0.3
			c0-0.1,0-0.1,0-0.2c0,0.2,0.1,0.3,0.1,0.5c0,0,0,0.1,0,0.1L69.6,378.4z M70.5,369.1c-0.1,0-0.3-0.1-0.4-0.1
			c-0.2,0-0.3-0.1-0.5-0.1l-0.4-0.5l0.7-0.4l1.7,1.3L70.5,369.1z"/>
		<path class="st8" d="M143.8,316.2c0,0-0.1,0-0.4,0.1l0,0c-0.2,0.1-0.5,0.1-0.8,0.2l-0.2,0c-0.2,0.1-0.5,0.1-0.8,0.2
			c-0.2,0-0.4,0.1-0.7,0.1c-0.2,0-0.5,0.1-0.7,0.2c0,0,0.1,0,0.1-0.1c0,0,0.1,0,0.1-0.1l0.3-0.1l0-0.2l0-0.2l0.1,0.3l2.8-0.7l-3-0.2
			l-0.1,0c0,0-0.1,0-0.2,0c-0.4,0-0.7,0.1-1,0.2l-0.3,0.1c-0.1,0-0.2,0.1-0.3,0.1c-0.2,0.1-0.4,0.2-0.7,0.3
			c-0.2,0.1-0.3,0.2-0.5,0.3l0.3-0.3c0.1-0.1,0.2-0.2,0.2-0.2l2.3-2.6l-2.9,1.8c0,0-0.1,0.1-0.3,0.2c-0.1,0-0.1,0.1-0.2,0.1
			l-0.6,0.3c-0.1,0.1-0.3,0.2-0.4,0.2c-0.2,0.1-0.4,0.2-0.6,0.3c-0.3,0.2-0.6,0.4-1,0.6l-0.4,0.3c-0.3,0.2-0.6,0.4-0.8,0.7
			c0.1-0.1,0.1-0.2,0.2-0.3c0.1-0.1,0.2-0.3,0.2-0.4c0.1-0.2,0.3-0.5,0.4-0.7c0.2-0.2,0.4-0.5,0.5-0.6l3.2-2.4l-3.6,1.4l-0.3,0.1
			c-0.2,0.1-0.4,0.2-0.7,0.4l-1.4,0.7l1.2-0.7L129,317c0,0-0.1,0-0.2,0.1l-0.1,0c-0.1,0-0.1,0-0.2,0.1l-2.2,0.6
			c-0.1,0-0.1,0-0.2,0.1c-0.2,0.1-0.4,0.1-0.6,0.2c-0.1,0-0.2,0.1-0.3,0.1l-0.3,0.1c-0.2,0.1-0.4,0.2-0.6,0.3
			c-0.2,0.1-0.3,0.2-0.5,0.2l1.4-1.5l-2.2,1l-0.6,0.3c-0.1,0.1-0.3,0.2-0.5,0.3l-0.3,0.2l-1.1,0.3c-0.1,0-0.2,0-0.3,0.1l-0.6,0.2
			c-0.1,0-0.2,0.1-0.3,0.1l-0.2,0.1c-0.1,0-0.2,0.1-0.2,0.1l0.3,0.4l-0.4-0.3c-0.1,0-0.2,0.1-0.2,0.1c-0.2,0.1-0.4,0.3-0.6,0.4
			c-0.1,0.1-0.2,0.1-0.3,0.2l0.4-1.2l1.3-2.5l-2.5,2.7l-2.2,0.6c-0.1,0-0.1,0-0.2,0.1c-0.1,0-0.2,0.1-0.3,0.1l-0.3,0.1
			c-0.1,0-0.2,0.1-0.3,0.2l-0.1,0.1c-0.3,0.2-0.6,0.4-0.9,0.6c-0.3,0.3-0.6,0.5-0.9,0.8l-0.4,0.4c-0.1,0.1-0.2,0.2-0.2,0.3
			c-0.1,0.1-0.1,0.2-0.2,0.3l-0.2,0c0-0.1,0.1-0.2,0.1-0.4c0.1-0.2,0.1-0.3,0.2-0.5c0-0.1,0.1-0.2,0.1-0.3l1-2.8l-1,1.1
			c0.1-0.3,0.2-0.5,0.3-0.8c0.1-0.4,0.1-0.7,0.1-0.9c0-0.2,0-0.3,0-0.3l-0.1-2.2l-0.5,1c0,0,0,0,0,0l0-0.2c0.1-0.2,0.1-0.5,0.1-0.6
			l0.1-2.6l-0.8,1.4c0-0.2,0-0.4,0-0.6l0-0.2c0-0.2-0.1-0.5-0.1-0.6l-0.4-2.4l-0.6,1.6c0,0,0-0.1,0-0.1c0-0.2,0-0.4-0.1-0.6
			c0-0.1,0-0.2,0-0.2c0-0.2-0.1-0.3-0.1-0.5l0-0.2c0-0.1,0-0.1,0-0.2l-0.1-0.7c0-0.4,0-0.7-0.1-0.9c0-0.2-0.1-0.4-0.1-0.5
			c0-0.1-0.1-0.2-0.1-0.4l0-0.2c0-0.1,0-0.2-0.1-0.4l-0.2-2.1l-0.8,1.7c0,0,0,0.1-0.1,0.3c0,0,0,0.1-0.1,0.2c0-0.2-0.1-0.4-0.1-0.7
			c-0.1-0.2-0.1-0.4-0.2-0.6c0-0.1-0.1-0.2-0.1-0.2c-0.1-0.2-0.1-0.3-0.2-0.4c0-0.1-0.1-0.1-0.1-0.2l-0.9-2.4l-0.1,2.4l0,0.2
			c0,0.1,0,0.1,0,0.2c0,0,0,0,0,0c0,0,0-0.1,0-0.1c0-0.1-0.1-0.2-0.1-0.3c0-0.1-0.1-0.2-0.1-0.3l-0.1-0.2c0-0.1,0-0.1-0.1-0.2
			l-0.3-1.7l-0.6,1.4l-0.2,0.4c0,0.1-0.1,0.1-0.1,0.2c0-0.1-0.1-0.1-0.1-0.2c-0.1-0.2-0.2-0.3-0.3-0.5c-0.1-0.1-0.2-0.2-0.3-0.3
			l-0.1-0.1c-0.2-0.3-0.5-0.5-0.7-0.7c-0.1-0.1-0.2-0.2-0.4-0.3c-0.1-0.1-0.2-0.2-0.3-0.3l-0.2-0.2c-0.1-0.1-0.1-0.1-0.2-0.2
			l-1.8-1.8l0.8,2.1l0.2,0.4c0,0.1,0.1,0.2,0.2,0.4c0,0.1,0.1,0.2,0.1,0.4c0.1,0.2,0.1,0.3,0.2,0.4c0.1,0.2,0.2,0.3,0.2,0.5
			c-0.3-0.1-0.5-0.1-0.7-0.1l-0.4-0.1c-0.2,0-0.3,0-0.5-0.1c-0.2,0-0.4-0.1-0.5-0.2c-0.1,0-0.1-0.1-0.2-0.1l-2-1.2l1.4,2
			c0,0,0.1,0.1,0.1,0.1l0.1,0.1c0.1,0.1,0.3,0.3,0.5,0.5c0.1,0.1,0.2,0.1,0.3,0.2l0.5,0.8c0.1,0.1,0.1,0.2,0.3,0.3
			c0,0.1,0.1,0.1,0.2,0.2c0.1,0.1,0.1,0.1,0.3,0.3c0.2,0.2,0.5,0.4,0.8,0.6l-1.1-0.4l-0.2-0.3l0.1,0.2l-0.9-0.3l1,0.8l0.4,0.8
			l0.9,2.2c0,0.1,0.1,0.2,0.1,0.3c0.1,0.1,0.1,0.3,0.2,0.4l0.1,0.1c0.1,0.1,0.2,0.3,0.3,0.4l0.1,0.2c0.3,0.3,0.5,0.7,0.8,1.1
			c0.1,0.2,0.3,0.3,0.4,0.5c0.2,0.2,0.3,0.4,0.5,0.6l-0.1-0.1c-0.2-0.2-0.4-0.3-0.6-0.4l-0.4-0.3c-0.2-0.1-0.3-0.2-0.3-0.2l-0.7,0.7
			c0,0,0.1,0.1,0.2,0.3c0.1,0.2,0.2,0.4,0.4,0.6l0.2,0.4c0.1,0.1,0.2,0.3,0.3,0.5l0.1,0.2c0.1,0.2,0.3,0.5,0.4,0.8l0.4,0.8
			c0,0.1,0.1,0.1,0.1,0.2c-0.2-0.2-0.3-0.4-0.5-0.5c-0.4-0.4-0.7-0.6-1-0.9l-3.4-2.7l2.4,3.2c0,0.1,0.1,0.1,0.2,0.2
			c0.1,0.2,0.3,0.5,0.4,0.8l0.2,0.4c0.1,0.2,0.2,0.4,0.3,0.6l0.1,0.2c-0.1-0.2-0.2-0.3-0.3-0.4l-2.9-3.8l1.8,4.1l-1.3-1l-0.1-0.2
			c-0.1-0.2-0.2-0.3-0.3-0.5c-0.2-0.3-0.2-0.4-0.2-0.4l-2.1-3.6l1,3.4l-0.1,0l0.2,0.6c0,0,0,0.2,0.1,0.5c0,0.2,0.1,0.3,0.2,0.5
			c0,0,0,0,0,0c-0.1-0.1-0.1-0.2-0.2-0.3l-0.1-0.2c-0.4-0.5-0.7-1-1.1-1.5c-0.4-0.6-0.9-1-1.3-1.4c-0.5-0.5-0.9-0.8-1.2-0.9
			c-0.2-0.1-0.3-0.1-0.4-0.2l-0.9-0.2l0.2,0.8l0.1,0.3l0.2,0.1c0,0,0.1,0,0.2,0.2c0.2,0.2,0.5,0.6,0.7,0.9c0.2,0.3,0.3,0.6,0.5,1
			c-0.3-0.3-0.6-0.5-0.9-0.8c-0.5-0.5-1.1-0.9-1.5-1.2c-0.2-0.2-0.5-0.4-0.7-0.5c-0.2-0.1-0.3-0.2-0.4-0.3l-3.4-2.4l2.5,3.2
			c-0.5-0.4-1.1-0.8-1.6-1.1c-0.5-0.3-1.1-0.6-1.8-1c-0.6-0.3-1-0.4-1.4-0.5c-0.1,0-0.2-0.1-0.3-0.1l0,0l-3.9-0.9l3.3,1.7l0.2,0.1
			c0.1,0,0.1,0.1,0.2,0.1c0,0,0.1,0,0.1,0.1l-0.1,0c-0.2-0.1-0.3-0.1-0.5-0.2l-0.8-0.4c-0.5-0.3-1.1-0.5-1.7-0.7
			c-0.3-0.1-0.6-0.2-0.8-0.2c-0.1,0-0.2,0-0.3,0l-0.1,0c-0.1,0-0.2,0-0.3,0l-0.1,0c-0.2,0-0.3,0-0.3,0.1L80,313
			c-0.1,0-0.1,0-0.2-0.1c-0.3-0.1-0.7-0.2-1-0.3c-0.3-0.1-0.6-0.1-0.9-0.2c-0.5-0.1-0.9-0.1-1.2-0.1l-0.2,0c-0.3,0-0.5,0-0.5,0
			l-3.1,0.1l3,0.9l0.2,0.1c0.1,0,0.1,0,0.3,0.1c0.2,0.1,0.6,0.2,1.1,0.5c0,0,0,0,0.1,0c-0.5-0.1-1-0.3-1.5-0.4
			c-0.6-0.1-1.1-0.2-1.7-0.3c-0.3,0-0.6,0-0.8,0c-0.1,0-0.3,0-0.4,0c-0.3,0-0.4,0-0.4,0l-0.2,1l0.1,0c0.1,0,0.1,0,0.3,0.1
			c0.1,0,0.3,0.1,0.5,0.2c-0.2,0-0.3,0-0.5,0c-0.5,0-1,0-1.3,0c-0.1,0-0.3,0-0.4,0l-0.2,0c-0.1,0-0.3,0-0.4,0h-3.4l3.3,1.1
			c0.1,0,0.2,0.1,0.3,0.1l0.5,0.2c0.2,0.1,0.4,0.1,0.6,0.2c0.2,0.1,0.4,0.2,0.6,0.2c0.2,0.1,0.4,0.1,0.6,0.2c-0.1,0-0.2,0-0.3,0
			c-0.3,0-0.6,0-0.8,0.1c-0.3,0.1-0.7,0.2-1,0.3l-1.4,0.6l-0.6,0.3c-0.1,0-0.2,0.1-0.3,0.1l-0.2,0.1c-0.2,0-0.3,0.1-0.5,0.1
			c-0.2,0-0.3,0-0.3,0l-2.2,0.2l2.1,0.8c0,0,0.1,0,0.3,0.1l0.1,0c0.2,0.1,0.5,0.2,0.8,0.2c0.2,0,0.4,0,0.6,0.1l0.1,0
			c0.2,0,0.4,0,0.5,0c0.5,0,1,0,1.5-0.1l0.1,0c0.1,0,0.2,0,0.4-0.1c-0.1,0.1-0.1,0.1-0.2,0.2l-0.4,0.3c-0.1,0.1-0.2,0.1-0.3,0.2
			c-0.1,0.1-0.2,0.1-0.2,0.2l-2.3,1.4l2.6-0.5c0,0,0.1,0,0.3,0l0.4-0.1c0.2,0,0.3-0.1,0.5-0.1c0.3-0.1,0.8-0.2,1.2-0.4
			c0.3-0.1,0.6-0.3,0.8-0.4c-0.1,0.1-0.2,0.2-0.3,0.2c-0.1,0.1-0.3,0.3-0.4,0.4c-0.1,0.1-0.2,0.2-0.3,0.3l-2,1.9l2.3-0.8l0.8-0.3
			c0.2-0.1,0.4-0.2,0.6-0.3l0.3-0.2c0.3-0.2,0.7-0.3,1-0.5c0.5-0.3,0.9-0.6,1.4-0.9l0.4-0.3c-0.1,0.1-0.1,0.2-0.2,0.3l-0.1,0.1
			c-0.2,0.2-0.3,0.4-0.5,0.5c-0.1,0.1-0.1,0.1-0.1,0.1l-2.3,2l2.8-1.1c0.1,0,0.1-0.1,0.3-0.1l0.2-0.1c0.2-0.1,0.4-0.2,0.6-0.3
			c0.3-0.2,0.8-0.4,1.1-0.7l0.3-0.2c-0.1,0.1-0.3,0.3-0.4,0.4c-0.1,0.1-0.1,0.1-0.2,0.2c0,0-0.1,0.1-0.1,0.1l-1.4,1.6l2-0.8
			c0,0,0.1,0,0.2-0.1c0.1,0,0.2-0.1,0.3-0.1c0.2-0.1,0.4-0.1,0.7-0.2c0.1-0.1,0.3-0.1,0.5-0.2c0.2-0.1,0.5-0.2,0.7-0.3
			c0.3-0.1,0.6-0.3,0.9-0.4c0,0-0.1,0.1-0.1,0.1c-0.1,0.2-0.3,0.3-0.4,0.4c-0.2,0.2-0.3,0.3-0.4,0.5c-0.1,0.1-0.1,0.2-0.2,0.3
			c-0.1,0.2-0.2,0.2-0.2,0.2l-1.6,1.6l-1.5,0l1,0.5l-0.1,0.1l0.1-0.1l0.8,0.4c-0.1,0-0.1,0-0.2,0c-0.2,0-0.4,0-0.6,0
			c-0.1,0-0.2,0-0.3,0c-0.2,0-0.4,0-0.5,0l-0.2,0c-0.1,0-0.2,0-0.2,0l-0.8,0c-0.4-0.1-0.8-0.1-1.1-0.1c-0.2,0-0.4,0-0.6,0
			c-0.2,0-0.3,0-0.4,0l-0.3,0c-0.2,0-0.3,0-0.4,0l-2.4-0.1l1.9,1c0,0,0.1,0.1,0.3,0.2c0,0,0.1,0,0.2,0.1c-0.3,0-0.5,0-0.7,0
			c-0.3,0-0.5,0.1-0.7,0.1c-0.1,0-0.2,0-0.3,0.1c-0.2,0-0.3,0.1-0.5,0.1c-0.1,0-0.2,0-0.2,0.1c-0.1,0-0.2,0.1-0.2,0.1l-2.8,0.5
			l2.8,0.5c0,0,0.1,0,0.3,0.1c0.1,0,0.2,0,0.3,0.1c0,0,0,0,0.1,0c0,0-0.1,0-0.1,0c-0.1,0-0.2,0-0.3,0.1c-0.1,0-0.2,0-0.4,0.1l-0.2,0
			c-0.1,0-0.2,0-0.3,0l-2,0.1l1.6,0.8l0.5,0.2c0.1,0,0.2,0.1,0.2,0.1c-0.1,0-0.1,0-0.2,0c-0.2,0.1-0.4,0.1-0.6,0.2
			c-0.1,0.1-0.3,0.1-0.4,0.2l-0.1,0.1c-0.3,0.2-0.6,0.4-0.9,0.6c-0.1,0.1-0.3,0.2-0.4,0.3c-0.1,0.1-0.2,0.2-0.3,0.2l-0.3,0.2
			c-0.1,0-0.1,0.1-0.2,0.1l-2.1,1.5l2.3-0.4l0.5-0.1c0.1,0,0.3-0.1,0.5-0.1c0.1,0,0.3-0.1,0.4-0.1c0.2,0,0.4-0.1,0.5-0.1
			c0.3-0.1,0.5-0.1,0.8-0.2c-0.1,0.3-0.2,0.5-0.2,0.8c0,0.1-0.1,0.2-0.1,0.3c0,0.2-0.1,0.3-0.1,0.5c-0.1,0.2-0.2,0.4-0.2,0.5
			c-0.1,0.1-0.1,0.1-0.1,0.1l-1.9,2.1l2.6-1.4c0.1,0,0.1,0,0.2-0.1l0.1-0.1c0.1-0.1,0.4-0.2,0.6-0.4c0.1-0.1,0.1-0.1,0.2-0.2l1-0.4
			c0.1,0,0.2-0.1,0.4-0.2c0.1,0,0.1-0.1,0.2-0.1c0.1-0.1,0.2-0.1,0.2-0.2l0.1-0.1c0.3-0.2,0.6-0.5,0.9-0.8c0.1-0.1,0.2-0.2,0.3-0.3
			l-0.8,1.5l-0.3,0.1l0.2-0.1l-0.3,0.6l0.7-0.6l0.6-0.2l3-0.7c0.1,0,0.2,0,0.3-0.1c0.1,0,0.3-0.1,0.5-0.2l0.1-0.1
			c0.2-0.1,0.4-0.1,0.5-0.2l0.2-0.1c0.4-0.2,0.9-0.4,1.4-0.7c0.2-0.1,0.4-0.2,0.6-0.3c0.3-0.2,0.7-0.4,1-0.6c0.1,0,0.2-0.1,0.3-0.1
			c0,0-0.1,0.1-0.1,0.1l-0.4,0.3c-0.2,0.2-0.4,0.3-0.6,0.5c-0.1,0.1-0.2,0.2-0.3,0.3l-0.1,0.1c-0.2,0.2-0.3,0.3-0.3,0.3l0.5,0.8
			c0,0,0.2-0.1,0.4-0.2c0.2-0.1,0.5-0.2,0.8-0.3l0.5-0.2c0.2-0.1,0.4-0.1,0.6-0.2l0.2-0.1c0.3-0.1,0.6-0.2,0.9-0.3l1-0.3l-1.9,1h0.8
			c-0.1,0.1-0.1,0.1-0.2,0.2l-0.1,0.1c-0.1,0.1-0.2,0.1-0.2,0.2l-1.1,0.9c-0.2,0.1-0.4,0.2-0.5,0.2c-0.2,0.1-0.3,0.2-0.5,0.3
			c-0.1,0.1-0.2,0.1-0.3,0.2l-0.2,0.1c-0.1,0.1-0.2,0.1-0.3,0.2l-1.8,0.9l1.8,0.1c0,0,0.1,0,0.3,0c0,0,0.1,0,0.2,0
			c-0.2,0.1-0.4,0.2-0.6,0.4c-0.2,0.1-0.3,0.3-0.5,0.4c-0.1,0.1-0.1,0.1-0.2,0.2c-0.1,0.1-0.2,0.2-0.3,0.3c-0.1,0-0.1,0.1-0.2,0.1
			l-2,1.7l2.3-0.7l0.2-0.1c0.1,0,0.1,0,0.2-0.1c0,0,0,0,0,0c0,0-0.1,0.1-0.1,0.1c-0.1,0.1-0.2,0.1-0.2,0.2c-0.1,0.1-0.2,0.1-0.3,0.2
			l-0.2,0.1c-0.1,0-0.1,0.1-0.2,0.1l-1.5,0.9l1.6,0.1l0.4,0c0.1,0,0.2,0,0.2,0c0,0-0.1,0.1-0.1,0.1c-0.1,0.1-0.2,0.3-0.4,0.4
			c-0.1,0.1-0.2,0.2-0.2,0.4l-0.1,0.1c-0.2,0.3-0.3,0.6-0.4,0.9c-0.1,0.1-0.1,0.3-0.2,0.5c0,0.1-0.1,0.2-0.1,0.4l-0.2,0.3
			c0,0.1-0.1,0.1-0.1,0.2l-1.1,2.3l1.7-1.5l0.4-0.3c0.1-0.1,0.2-0.2,0.3-0.3c0.1-0.1,0.2-0.2,0.3-0.3c0.1-0.1,0.3-0.2,0.4-0.3
			c0.1-0.1,0.3-0.3,0.4-0.4c0,0.3,0.1,0.5,0.1,0.7l0.1,0.4c0,0.2,0.1,0.3,0.1,0.5c0,0.2,0,0.4,0,0.5c0,0.1,0,0.2,0,0.2l-0.5,2.3
			l1.4-2c0,0,0.1-0.1,0.1-0.2l0.1-0.1c0.1-0.2,0.2-0.4,0.3-0.6c0-0.1,0.1-0.2,0.1-0.3l0.6-0.8c0.1-0.1,0.1-0.2,0.2-0.3
			c0-0.1,0.1-0.1,0.1-0.2c0-0.1,0.1-0.1,0.1-0.3l0.4-0.1l0,0.3l-0.2,0.4l0.2-0.2l0,0.9l0.3-0.9l0.2,0.6l0.7-0.1
			c0.2-0.1,0.5-0.1,0.9-0.2l0.9-0.3l0,0.1l0.1-0.1l0.1,0c0.2,0,0.3-0.1,0.5-0.1c0.2,0,0.4-0.1,0.6-0.2l-0.4,0.2
			c-0.4,0.2-0.9,0.5-1.3,0.7c-0.3,0.2-0.6,0.4-0.8,0.5c-0.1,0.1-0.3,0.2-0.4,0.3c-0.2,0.2-0.5,0.3-0.6,0.5l-0.3,0.2
			c-0.2,0.1-0.3,0.2-0.3,0.2l-2.9,2.2l3.4-1.3c0,0,0.1-0.1,0.4-0.1c0.1,0,0.2-0.1,0.3-0.1c0.2-0.1,0.4-0.1,0.6-0.2
			c0.1-0.1,0.3-0.1,0.4-0.2c-0.2,0.2-0.4,0.3-0.6,0.5c-0.2,0.2-0.4,0.3-0.5,0.5c-0.2,0.1-0.3,0.3-0.5,0.4l-0.2,0.2
			c-0.2,0.2-0.3,0.3-0.5,0.4c-0.1,0.1-0.1,0.1-0.2,0.2l-2.9,1.7l3.4-0.8c0.1,0,0.1,0,0.3-0.1l0.2-0.1c0.1,0,0.3-0.1,0.5-0.2
			c0,0,0,0.1-0.1,0.1c-0.2,0.2-0.3,0.5-0.5,0.7c-0.1,0.2-0.2,0.3-0.3,0.4c-0.1,0.2-0.3,0.4-0.3,0.6c-0.1,0.1-0.1,0.2-0.2,0.3
			l-1.8,3.1l2.4-2.1c0,0,0.1-0.1,0.3-0.2c0.1-0.1,0.2-0.1,0.3-0.2c0.1-0.1,0.3-0.2,0.4-0.4c0.2-0.2,0.4-0.3,0.6-0.5
			c-0.3,0.4-0.6,0.8-0.9,1.3c-0.2,0.4-0.4,0.8-0.6,1.3c0,0.1-0.1,0.2-0.1,0.3l-0.6,3.9l1.3-2.5c0,0,0.1-0.1,0.2-0.3l0.3-0.4
			l-0.2-0.2l0-0.1l0.3,0.1l0.1-0.2c0.1-0.2,0.3-0.4,0.5-0.6l0.3-0.3c-0.1,0.2-0.2,0.4-0.3,0.6c-0.1,0.1-0.1,0.3-0.2,0.4
			c0,0.1-0.1,0.2-0.1,0.4c-0.1,0.3-0.2,0.5-0.2,0.7c-0.1,0.3-0.1,0.7-0.2,1l-0.1,0.3c0,0.2-0.1,0.4-0.1,0.6c0,0.1,0,0.2,0,0.4
			l-0.3,3.6l1.3-3.1c0,0,0-0.1,0.1-0.2c0-0.1,0.1-0.2,0.1-0.3l0.2-0.5c0,0,0-0.1,0.1-0.1c0,0.5,0.1,1,0.2,1.5c0,0.3,0.1,0.5,0.1,0.8
			l0.2,0.8c0.1,0.3,0.2,0.6,0.2,0.8l0.2,0.7l1-0.2c0,0,0-0.1,0-0.4c0-0.2,0-0.5,0-0.9l0-0.1c0-0.2,0-0.4,0-0.7l0-0.3
			c0-0.2,0-0.4,0-0.6c0-0.1,0-0.1,0-0.2c0,0.1,0.1,0.1,0.1,0.2l0.1,0.1c0.2,0.3,0.4,0.5,0.5,0.7l0.1,0.1c0.1,0.1,0.1,0.1,0.2,0.2
			l2,1.9l-1.2-2.5c0,0,0-0.1-0.1-0.2c0-0.1-0.1-0.2-0.1-0.4c0-0.1-0.1-0.2-0.1-0.3c-0.1-0.2-0.1-0.4-0.1-0.6c0-0.2-0.1-0.3-0.1-0.5
			l-0.3-1.3c-0.1-0.5-0.2-0.9-0.4-1.3c-0.1-0.2-0.1-0.4-0.2-0.6c0-0.1-0.1-0.3-0.1-0.4c0,0.1,0.1,0.3,0.2,0.4l0.2,0.5
			c0.2,0.4,0.4,0.9,0.6,1.3c0.1,0.2,0.2,0.4,0.3,0.6c0.1,0.2,0.2,0.5,0.3,0.7c0.1,0.2,0.2,0.4,0.3,0.5c0.1,0.2,0.1,0.3,0.2,0.4
			l0.2,0.4l1-0.3l-0.1-0.6c0-0.2-0.1-0.5-0.1-0.8l-0.1-0.4c-0.1-0.3-0.1-0.7-0.2-1c0-0.1-0.1-0.3-0.1-0.4l0,0.1l0,0l0,0l0.2-0.1
			l-0.1,0.2l2,2.5l-1.2-3.1c0,0,0-0.1-0.1-0.2c-0.1-0.1-0.1-0.3-0.2-0.6l0-0.2c-0.1-0.2-0.1-0.5-0.1-0.8l0-0.3
			c0-0.2-0.1-0.4-0.1-0.7c0.2,0.2,0.3,0.4,0.4,0.5l2.3,2.3l-1.2-2.6c0,0,0-0.1-0.1-0.2c-0.1-0.1-0.1-0.3-0.2-0.5l0-0.1l2.4,1.6
			l-1.7-2.4l-0.1-0.1c-0.1-0.1-0.1-0.4-0.2-0.6c-0.1-0.2-0.1-0.5-0.1-0.8l0-0.2c0,0,0-0.1,0-0.1c0,0.1,0.1,0.1,0.1,0.2
			c0.1,0.1,0.1,0.2,0.2,0.3l0.1,0.2c0.1,0.1,0.2,0.2,0.2,0.3L98,349l-1.2-3.3c0-0.1-0.1-0.2-0.1-0.3l-0.1-0.5
			c-0.1-0.2-0.1-0.5-0.2-0.8l-0.2-0.7c-0.1-0.3-0.2-0.7-0.2-1.1L96,342c0-0.1,0-0.2-0.1-0.3c0.1,0.4,0.3,0.9,0.5,1.3
			c0.2,0.5,0.4,0.9,0.6,1.2c0.2,0.3,0.3,0.5,0.5,0.7l0.1,0.2c0.1,0.2,0.2,0.3,0.2,0.3l2.3,2.9l-1.4-3.4c0,0,0-0.1-0.1-0.4
			c0-0.1-0.1-0.2-0.1-0.3l-0.1-0.3c0,0,0,0,0,0.1l2.5,3.7l-1.6-4.2c0,0,0-0.1-0.1-0.3l-0.2-0.6c0-0.1,0-0.1,0-0.2
			c-0.1-0.2-0.1-0.5-0.1-0.9l-0.1-0.9c0-0.3-0.1-0.6-0.1-0.9c0-0.2,0-0.4-0.1-0.6l0-0.2c0.1,0.2,0.1,0.3,0.2,0.5l0.2,0.6
			c0.1,0.2,0.1,0.4,0.1,0.5c0.1,0.3,0.2,0.6,0.2,0.8c0,0.1,0.1,0.2,0.2,0.4l1.9,3.7l-0.9-4.1c0,0,0-0.1,0-0.2l0-0.1l0,0l0-0.1
			c0-0.1,0-0.3,0.1-0.5c0,0,0,0,0,0l3,2.5l-2.2-3.1l0-0.1c0-0.1,0-0.3,0-0.5l0-0.2c0-0.1,0-0.1,0-0.2l0-0.2l-0.5,0l0.4-0.1
			c0,0.1,0.1,0.1,0.1,0.2l0.2,0.3c0,0.1,0.1,0.1,0.1,0.2l0.2-0.1l-0.1,0.2l2,2.9l-1.2-3.4c0,0,0-0.1,0-0.2l-0.1-0.7
			c0-0.2,0-0.4,0-0.5c0,0,0,0,0,0.1l0,0.2c0.1,0.4,0.2,0.7,0.3,1l1.2,2.7l0.1,5.5l0,5.7c0,1.3,0,2.7,0,4.1l0,4.3
			c0,1.9,0,3.8-0.1,5.7l-0.2,12.1l-0.5,18.5l-0.9,27c-0.1,2.7-0.9,21.7-0.9,21.7l0,0.5l6,0.2l0-0.5c0-0.2,0.8-19.1,0.8-21.8
			l0.2-11.2l0.3-34.1l0-12.5c0-1.9,0-3.9,0-5.7l0-4.3c0-1.4,0-2.8-0.1-4.1l-0.1-3.9l-0.4-11.6c0.3,0.4,0.6,0.8,0.9,1.3l0.2,0.3
			c0.2,0.2,0.3,0.5,0.5,0.7c0.2,0.3,0.5,0.7,0.6,1l0.7,1.3c0.1,0.3,0.2,0.4,0.2,0.5l1.7,4.1l-0.7-4.3c0,0,0-0.2-0.1-0.5
			c0-0.2,0-0.4-0.1-0.7c0-0.3-0.1-0.5-0.1-0.8c0-0.1-0.1-0.3-0.1-0.5l-0.1-0.5c0-0.2-0.1-0.4-0.1-0.6c-0.1-0.2-0.1-0.4-0.2-0.6
			c0,0,0-0.1-0.1-0.1c0.2,0.2,0.3,0.3,0.5,0.5l0.1,0.1c0.4,0.4,0.8,0.9,1.1,1.3c0.3,0.4,0.6,0.8,0.7,1c0.1,0.1,0.1,0.2,0.2,0.3
			l1.9,3.7l-1-4.4c0-0.1-0.1-0.2-0.1-0.3c-0.1-0.3-0.1-0.6-0.3-1c-0.1-0.5-0.3-1.1-0.6-1.7l0.1,0.1c0.1,0.1,0.1,0.2,0.2,0.3
			c0.3,0.3,0.5,0.6,0.7,0.8c0.2,0.2,0.3,0.4,0.5,0.5l0.2,0.2c0.2,0.2,0.3,0.4,0.5,0.6l0.3,0.3c0.3,0.3,0.5,0.6,0.6,0.8
			c0.1,0.1,0.1,0.2,0.2,0.3l1.9,3.4l-1-4.2c-0.1-0.3-0.2-0.8-0.4-1.4c-0.2-0.4-0.4-0.9-0.6-1.4l0.1,0.2c0.1,0.2,0.3,0.4,0.4,0.6
			l0.6,0.8c0.2,0.3,0.4,0.5,0.6,0.8l0.1,0.2c0.1,0.2,0.3,0.3,0.4,0.5l0.3,0.4c0.2,0.3,0.4,0.5,0.5,0.7c0.2,0.2,0.2,0.4,0.2,0.4
			l0.9-0.4c0,0-0.1-0.2-0.1-0.5l0-0.1c0-0.1-0.1-0.3-0.1-0.4c-0.1-0.2-0.1-0.5-0.2-0.8l-0.1-0.5c-0.1-0.2-0.1-0.3-0.2-0.5
			c0.1,0.2,0.2,0.3,0.3,0.5c0.2,0.3,0.4,0.7,0.5,1.1c0.1,0.2,0.2,0.4,0.3,0.6c0.2,0.5,0.5,1,0.7,1.4l0.1,0.2
			c0.1,0.2,0.2,0.4,0.3,0.5l0.1,0.1c0.1,0.2,0.2,0.3,0.3,0.4c0.1,0.1,0.2,0.2,0.3,0.3l2,2.1l0.5,0.6l0.3,1l0.1-0.8l0,0l0,0l0.1-2
			c0,0.2,0,0.3,0.1,0.4c0.1,0.5,0.2,0.9,0.4,1.4c0,0.1,0.1,0.2,0.1,0.3c0,0.1,0.1,0.2,0.1,0.3c0.1,0.2,0.2,0.3,0.2,0.4l0.6,0.9
			c0,0.1,0.1,0.3,0.1,0.4c0.1,0.3,0.2,0.6,0.3,0.7l0.1,0.1c0,0.1,0.1,0.1,0.2,0.3l1.3,2.4l-0.4-2.7c0,0,0-0.1,0-0.2
			c0-0.1,0-0.4,0.1-0.6c0-0.2,0.1-0.4,0.1-0.6c0-0.1,0.1-0.3,0.1-0.4c0.1-0.3,0.2-0.6,0.2-1c0.2,0.2,0.3,0.4,0.5,0.6
			c0.1,0.1,0.3,0.3,0.4,0.4c0.1,0.1,0.2,0.2,0.3,0.3c0.1,0.1,0.2,0.2,0.3,0.3l2,2l-0.9-2.4c0-0.1-0.1-0.1-0.1-0.3l-0.1-0.4
			c0-0.1-0.1-0.3-0.2-0.5c0-0.1-0.1-0.3-0.1-0.4c-0.1-0.4-0.3-0.7-0.5-1.1l-0.1-0.1c-0.1-0.1-0.1-0.3-0.2-0.4
			c-0.1-0.2-0.2-0.4-0.4-0.5c-0.1-0.1-0.2-0.2-0.3-0.3l0.1,0c0.1,0,0.3,0,0.4,0l0.3,0l1.8,0l-1.3-0.9c0,0-0.1,0-0.2-0.1
			c0,0-0.1-0.1-0.2-0.1l-0.2-0.2c-0.1-0.1-0.2-0.1-0.3-0.2c-0.1-0.1-0.2-0.2-0.2-0.2c-0.1-0.1-0.2-0.2-0.3-0.3l-0.1-0.1
			c0,0,0,0,0.1,0c0.1,0.1,0.3,0.1,0.4,0.1c0.1,0,0.2,0.1,0.3,0.1c0.1,0,0.2,0.1,0.2,0.1l2.2,0.9l-1.7-1.7c0,0-0.1-0.1-0.2-0.2
			c0,0-0.1-0.1-0.1-0.2c-0.1-0.1-0.2-0.2-0.3-0.4c-0.1-0.1-0.1-0.1-0.2-0.2c-0.2-0.2-0.3-0.3-0.5-0.5c-0.3-0.2-0.5-0.4-0.9-0.6
			c0.1,0,0.2,0,0.2,0c0.1,0,0.2,0,0.3,0c0.2,0,0.3,0,0.3,0l1.1,0l0.9,1.5l-0.3-1.5l0.2,0l-0.3-0.1l-0.2-1.2c0,0,0-0.1,0-0.2
			c0-0.1,0-0.4,0-0.6l0-0.1c0-0.1,0-0.1,0-0.2l0.1,0.3c0.2,0.5,0.3,1,0.5,1.5c0.1,0.4,0.3,0.7,0.4,1l0.1,0.3
			c0.1,0.2,0.2,0.4,0.3,0.5l1.7,2.7l-0.4-2.7c0-0.1,0-0.2-0.1-0.4c0-0.2,0-0.3-0.1-0.5c0-0.1,0-0.2,0-0.2c0.1,0.2,0.2,0.5,0.3,0.7
			c0.2,0.4,0.5,0.7,0.7,1c0.1,0.2,0.2,0.3,0.4,0.5l0.2,0.2c0.1,0.1,0.2,0.2,0.2,0.2l1.7,1.9l-0.9-2.4c0,0,0-0.1-0.1-0.3
			c0-0.1,0-0.2-0.1-0.3l-0.1-0.5c0-0.1,0-0.1-0.1-0.2c0.1,0.1,0.1,0.1,0.2,0.2l0.1,0.1c0.3,0.3,0.7,0.6,1,0.9
			c0.1,0.1,0.3,0.2,0.4,0.3l0.1,0.1c0.2,0.1,0.3,0.2,0.5,0.3c0.3,0.2,0.6,0.3,0.8,0.3l0.1,0c0.2,0,0.3,0.1,0.3,0.1l2,0.5l-1.6-1.4
			c0,0-0.1-0.1-0.2-0.2c-0.1-0.1-0.2-0.2-0.3-0.3l-0.2-0.2c-0.1-0.1-0.1-0.1-0.2-0.2l-1-1.9c-0.2-0.3-0.3-0.6-0.5-0.8
			c-0.2-0.2-0.4-0.4-0.6-0.6c-0.1-0.1-0.1-0.1-0.2-0.2c0.2,0.1,0.4,0.1,0.6,0.2c0.2,0.1,0.4,0.1,0.6,0.2c0.2,0.1,0.4,0.1,0.6,0.2
			l0.5,0.1c0.1,0,0.2,0.1,0.4,0.1l3.1,0.9l-2.6-1.9c-0.1-0.1-0.2-0.1-0.3-0.2l-0.1-0.1c-0.1-0.1-0.2-0.2-0.3-0.2
			c-0.1-0.1-0.3-0.2-0.4-0.3c-0.2-0.1-0.4-0.3-0.6-0.4c-0.1-0.1-0.3-0.2-0.4-0.3c0,0,0,0,0,0c0.2,0,0.4,0.1,0.5,0.1
			c0.1,0,0.2,0.1,0.2,0.1l0.1,0l0.4-0.9c0,0-0.1-0.1-0.3-0.2c-0.1,0-0.2-0.1-0.3-0.2c-0.2-0.1-0.4-0.3-0.7-0.5
			c-0.4-0.2-0.8-0.5-1.3-0.7c-0.4-0.2-0.9-0.4-1.4-0.5c0.1,0,0.1,0,0.2,0c0.4,0.1,0.8,0.1,1,0.2c0.1,0,0.1,0,0.3,0.1l3,1l-2.4-1.9
			c0,0-0.1-0.1-0.4-0.3l-0.1-0.1c-0.2-0.2-0.6-0.4-1-0.6c-0.2-0.1-0.5-0.2-0.8-0.4c-0.3-0.1-0.6-0.2-0.9-0.3c-0.1,0-0.1,0-0.2-0.1
			l-0.6-0.8c-0.1-0.1-0.1-0.2-0.3-0.3l-0.1-0.1c-0.1,0-0.1-0.1-0.2-0.1l-0.1-0.1c-0.1,0-0.1-0.1-0.2-0.1c-0.2-0.1-0.5-0.2-0.8-0.3
			c-0.4-0.1-0.8-0.2-1.2-0.3l-0.3-0.2l2.3,0.2l-3.2-1.4c-0.1,0-0.2-0.1-0.3-0.1c-0.3-0.1-0.8-0.3-1.3-0.4c0,0-0.1,0-0.1,0l-1.1-0.7
			c-0.1,0-0.2-0.1-0.3-0.2c-0.2-0.1-0.6-0.3-1.1-0.4c0,0,0,0,0,0c0.1,0,0.1,0,0.2,0l0.2,0c0.2,0,0.4,0.1,0.6,0.1
			c0.3,0,0.5,0.1,0.7,0.1c0.2,0,0.4,0.1,0.5,0.1c0.1,0,0.3,0,0.4,0.1l3.7,0.7l-3-1.6c0.4,0.1,0.8,0.1,1.1,0.2
			c0.2,0.1,0.4,0.1,0.6,0.1c0.1,0,0.3,0,0.4,0.1l4.5,1l-3.8-1.9c0,0-0.1-0.1-0.3-0.2c0,0-0.1-0.1-0.2-0.1c0.3,0.1,0.5,0.1,0.8,0.2
			c0.3,0.1,0.5,0.1,0.7,0.1l0.6,0.1c0.2,0,0.4,0.1,0.6,0.1l5.1,0.6l-4.5-1.6c-0.1,0-0.2-0.1-0.4-0.1l-0.5-0.2
			c-0.2-0.1-0.4-0.1-0.6-0.2l-0.2-0.1l1.4,0.2c0.3,0,0.5,0.1,0.7,0.1l0.2,0c0.2,0,0.4,0.1,0.6,0.2c0.1,0,0.1,0,0.2,0.1l2.2,1
			l-1.7-1.9c0,0-0.1-0.1-0.3-0.2c-0.1,0-0.1-0.1-0.2-0.2l0,0c0.1,0,0.2,0,0.3,0c0.5,0,1,0,1.4,0c0.2,0,0.5,0,0.7,0
			c0.2,0,0.4,0,0.5,0c0.3,0,0.6,0,0.8,0.1c0.1,0,0.1,0,0.1,0l0.1-0.2l0,0.3l3.6,1.1l-3-1.8l0.2,0c0.2,0,0.2,0,0.3,0l2-0.1l-1.8-0.9
			c0,0-0.1,0-0.3-0.1c-0.1,0-0.1-0.1-0.2-0.1c-0.1-0.1-0.3-0.2-0.4-0.2c-0.1,0-0.2-0.1-0.3-0.2c-0.2-0.1-0.4-0.2-0.6-0.3
			c0,0,0,0-0.1,0c0.3-0.1,0.5-0.2,0.8-0.3c0.5-0.2,1.1-0.4,1.6-0.7c0.4-0.2,0.8-0.4,1.1-0.6l0.3-0.2c0.1-0.1,0.3-0.2,0.4-0.2
			l0.2-0.1c0.1-0.1,0.2-0.1,0.3-0.2c0.2-0.1,0.3-0.2,0.3-0.2l3.1-1.9L143.8,316.2z M81.7,324.4c0,0-0.1,0-0.1,0l0.1-0.2L81.7,324.4z
			 M83.1,323.6C83.1,323.6,83.1,323.6,83.1,323.6l-0.4,0c-0.1,0-0.2,0-0.3,0c-0.1,0-0.2,0-0.3,0l-0.2,0c0,0-0.1,0-0.2,0l-0.5,0
			l1.4-0.6l0.8,0.5L83.1,323.6z M84.8,322.3c-0.2,0.1-0.2,0.2-0.3,0.2l-0.5,0.4l-1-0.2c0.1,0,0.1-0.1,0.3-0.1c0.1,0,0.2-0.1,0.4-0.2
			c0.2-0.1,0.4-0.2,0.6-0.3c0.1-0.1,0.3-0.1,0.5-0.2c0.3-0.1,0.6-0.3,0.8-0.4c0,0,0.1-0.1,0.1-0.1c0,0-0.1,0.1-0.1,0.1
			c-0.1,0.1-0.3,0.3-0.4,0.4C85,322.1,84.9,322.2,84.8,322.3z M86.1,323.4C86.1,323.4,86.1,323.4,86.1,323.4l-0.3-0.1
			c-0.1,0-0.3-0.1-0.4-0.1c0.1,0,0.1,0,0.2-0.1L86.1,323.4L86.1,323.4z M85.5,340.2c0-0.1,0-0.1,0-0.2L85.5,340.2L85.5,340.2z
			 M89.5,318.7l0.1,0c-0.1,0-0.2,0.1-0.3,0.2c0,0,0,0,0,0C89.4,318.8,89.5,318.8,89.5,318.7z M88.9,323.1l0.3-0.1l0,0l-0.3,0.3
			c-0.1,0-0.2-0.1-0.3-0.1C88.7,323.2,88.8,323.2,88.9,323.1z M86.7,322.9l-0.4,0c0.1,0,0.2-0.1,0.4-0.1l0.3-0.1
			c0.1,0,0.1,0,0.2-0.1L86.7,322.9z M88.6,340c-0.2,0.1-0.3,0.1-0.5,0.2l-0.2,0.1c-0.2,0.1-0.5,0.2-0.7,0.3
			c-0.2,0.1-0.5,0.2-0.6,0.3l-0.4,0.2l0.2-0.3l0.6-0.2c0,0,0.2-0.1,0.4-0.1c0.2-0.1,0.3-0.1,0.6-0.2L88.6,340
			c0.1-0.1,0.3-0.2,0.5-0.2L88.6,340z M89.9,337.7c-0.1,0.1-0.2,0.1-0.3,0.2c-0.2,0.1-0.4,0.2-0.6,0.3c0.1-0.1,0.2-0.2,0.3-0.3l0,0
			c0,0,0,0,0,0c0.1,0,0.1,0,0.2,0l0.2,0C89.7,337.7,89.8,337.6,89.9,337.7L89.9,337.7z M93.5,343.5L93.5,343.5L93.5,343.5
			L93.5,343.5z M93.7,320.9c-0.2,0.1-0.5,0.2-0.8,0.3c0.1-0.1,0.2-0.2,0.4-0.2c0.1,0,0.2-0.1,0.2-0.1c0.1,0,0.2-0.1,0.2-0.1l0.1-0.1
			c0.1,0.1,0.2,0.1,0.3,0.2C94,320.8,93.8,320.8,93.7,320.9z M95.4,339.9l-0.1-0.3c0-0.1-0.1-0.2-0.1-0.3c0.1-0.1,0.2-0.2,0.3-0.3
			c0,0.1,0,0.1,0,0.2c0,0.3,0.1,0.5,0.1,0.8c0,0.3,0.1,0.5,0.1,0.8C95.6,340.5,95.5,340.2,95.4,339.9z M95.9,322.3
			C95.8,322.3,95.8,322.3,95.9,322.3C95.8,322.3,95.8,322.3,95.9,322.3c0.1-0.1,0.1-0.2,0.2-0.3c0,0,0,0,0,0
			c0.1,0.1,0.2,0.1,0.3,0.2C96.2,322.2,96,322.3,95.9,322.3z M97.9,336.3c0,0,0.1-0.1,0.1-0.1c0,0.2,0,0.4,0.1,0.6
			C98,336.6,98,336.4,97.9,336.3z M101.5,328.7L101.5,328.7C101.4,328.7,101.4,328.7,101.5,328.7L101.5,328.7L101.5,328.7z
			 M103.9,338.6l-0.5,0l0.5-0.1c0,0,0-0.1,0-0.2c0-0.1,0-0.3,0-0.4l0,1.3L103.9,338.6z M108.4,321L108.4,321L108.4,321L108.4,321z
			 M109.8,313.7l-0.3-0.1c0,0,0-0.1,0-0.1L109.8,313.7L109.8,313.7z M110.8,323.8c0,0.1-0.1,0.1-0.1,0.2c-0.1,0-0.1,0.1-0.2,0.1
			c0-0.1,0.1-0.2,0.1-0.3L110.8,323.8C110.8,323.7,110.8,323.8,110.8,323.8z M117,328.8C117,328.8,117.1,328.8,117,328.8
			C117.1,328.8,117.1,328.8,117,328.8C117.1,328.8,117.1,328.8,117,328.8C117.1,328.8,117.1,328.8,117,328.8z M119.6,329l0.1,0
			c0,0,0,0.1,0.1,0.1c0,0.1,0.1,0.1,0.1,0.2l0,0C119.8,329.3,119.7,329.1,119.6,329z M119.9,329.4L119.9,329.4
			C119.9,329.4,119.9,329.5,119.9,329.4C119.9,329.5,119.9,329.4,119.9,329.4z M123.8,329.4C123.8,329.4,123.9,329.4,123.8,329.4
			c0.1,0.1,0.1,0.2,0.1,0.2C123.9,329.6,123.9,329.5,123.8,329.4z M130.8,338c0,0.1,0.1,0.1,0.1,0.2l0.3-0.1l-0.2,0.2l0.2,0.3
			l-0.5-0.3c0,0-0.1,0-0.2-0.1c-0.1,0-0.2-0.1-0.3-0.2l0,0l-0.1-1.3c0,0,0-0.1,0-0.2c0-0.1,0-0.2,0-0.3c0-0.1,0-0.3,0-0.4l0.1,0.2
			c0.1,0.4,0.3,0.9,0.5,1.2c0.1,0.2,0.2,0.5,0.3,0.6C130.7,337.8,130.7,337.9,130.8,338z M129.1,327.7c0.1,0,0.1,0,0.3,0l0.7,0.1
			l0.5,0.2c-0.1,0-0.2,0-0.3,0l-0.9-0.2c-0.1,0-0.3-0.1-0.5-0.1C129,327.7,129.1,327.7,129.1,327.7z M127.7,334.9
			c0.1,0.2,0.3,0.5,0.4,0.7c0.1,0.1,0.2,0.3,0.2,0.4c0.1,0.2,0.2,0.4,0.4,0.6c0.1,0.1,0.1,0.2,0.2,0.3c0,0,0.1,0.1,0.1,0.1l0.2-0.1
			l0.1,0l-0.2,0.2l0.2,0.3c-0.1,0-0.1-0.1-0.2-0.1c-0.3-0.2-0.6-0.3-1-0.5l-0.5-0.3l0-0.2c0,0,0-0.1,0-0.4c0-0.1,0-0.2,0-0.3
			c0-0.2,0-0.4,0-0.6c0-0.2,0-0.4-0.1-0.6c0,0,0-0.1,0-0.1C127.4,334.4,127.6,334.7,127.7,334.9z M125.8,335c0,0.1,0.1,0.2,0.1,0.2
			c0,0,0,0,0,0c-0.1-0.1-0.3-0.1-0.4-0.2c0,0,0,0,0-0.1L125.8,335z M131.6,320.1l-0.1,0c0.1-0.1,0.2-0.2,0.3-0.2
			C131.7,320,131.6,320,131.6,320.1z"/>
		<g id="XMLID_5_">
			<g id="XMLID_63_">
				<path class="st8" d="M335.2,401.5c-1.4,0-7-0.2-7.4-0.4c-0.4-0.2-1.7-0.8-2-0.7c-0.3,0.1,0.1,0.8,0,1.2c-0.1,0.4,0.6,1.2-1,3.4
					c-1.6,2.2-3.9,6.3-4.5,6.6c-0.6,0.3-4.5,0.6-5.1,0c-0.6-0.6-5.3-4.7-6-5.4c-0.8-0.7-0.4-3.4-1.1-4c-0.8-0.6-3.8-1.9-4.4-2.9
					c-0.6-1-3.8-5.6-3.8-6.2c0-0.7-0.5-0.7,0-1.3c0.5-0.6,1.4-0.5,1.6-1.3c0.2-0.8,0.9-2.6,0.2-3.1c-0.7-0.5-3.9-1.6-4.2-0.7
					c-0.3,0.9,1.2,3.5,0.6,4c-0.6,0.5-1.2,2.7-1.1,4c0.2,1.3,0.9,2.8,0.3,3c-0.7,0.1-2.1-1.8-2.1-2.6c0-0.8,1.5-4.4,1.2-5.1
					c-0.3-0.7-2.1-1.1-2.4-1.8c-0.4-0.7-2-2.7-3-1.6c-1,1.1-2.4,1-2,1.9c0.4,0.9,2.1,2.1,1.3,2.8c-0.8,0.7-0.8,3.8-1.4,4.5
					s-2.1,0.7-1.9,2.8c0.3,2,2,4.7,1.3,5.7c-0.6,1-3.5,4.8-4.4,5.8c-0.9,1.1-2.4,3.6-2.2,5.6c0.1,0.7,0.2,1.7,0.3,2.8
					c-0.3,0.9,1.4,3.6,1.2,4.5c-1.1,4.1-3.9,7.3-3.9,7.9c-0.1,0.6,0.2,9,0,10.4c-0.2,1.4,1.3,0.9,1.9,0.8c0.6-0.1-0.6-2-0.4-3.3
					c0.1-1.3,0.2-6.6,1.1-7.6c0.9-1.1,5.4-6.4,5.8-8.6c0,0,3.1,3.6,3.1,7.8c0,4.2,1.9,5.1,3.8,7.6c1.9,2.5,1.5,4.1,3.1,4.3
					c1.6,0.2,2.7-0.1,2.5-1c-0.3-0.9-1-0.2-3.2-3c-2.2-2.8-4.1-7.2-3.6-8.8c0.4-1.6,1.8-4.8,1.5-6.2c0,0,5.9,2.2,10.5,1.1
					c0,0,0.8,7.9,0.5,10.8c-0.3,2.9,0.6,4.8,0.5,5.7c-0.1,0.8,2.2,1.3,2.7,0.8c0.6-0.5-1.5-1.8-1.5-2.7c0-0.8,0.1-5.3,0.1-7.6
					c0-2.2,1.3-6.5,1.3-6.5s6.4,4,7,5.5c0.6,1.5-3.2,7.1-4.5,7.7c-1.3,0.6,0.8,2.1,1.2,2.1c0.4,0,0-0.7,0.6-2
					c0.6-1.3,4.9-5.9,5.3-6.9c0.4-1.1-1.6-4.1-4.1-5.7c-2.5-1.7-1.7-2.7-1.1-3.3c0.6-0.6,1.8-1.3,2.2-1.3c0.3,0,3.1-1.6,5.6-2.4
					c0.2-0.1,0.5-0.2,0.6-0.4c2.1-1.8,5.3-8,6.1-8.8c0.8-0.8,2-2.5,2.5-2.7c0.4-0.1,1.3-0.4,2-0.4c0.8-0.1,1.5-1.2,2.4-1.1
					c0.9,0.2,2.1-0.8,2.1-1.5C336.6,402.9,336.5,401.6,335.2,401.5z"/>
			</g>
			<g id="XMLID_64_">
				<path class="st8" d="M397.7,402.6c-0.2-0.3-0.2-1.2-0.9-0.9s-2.4,0.9-3.4,0.9c-0.9,0-3-0.5-3.2-0.1c-0.2,0.5-0.2,4.5-1.6,6.4
					c-1.4,1.9-3.2,3.5-4.8,3.2c-1.6-0.3-4.8-1.6-6.5-3.8c-1.6-2.2-6.6-6.6-7.2-6.6c-0.5,0,2.1-1.2,1.6-1.8c-0.5-0.6-4-0.8-4.2-2.3
					c-0.2-1.5-1.1-4-0.5-5c0.6-1,1.6-1.3,1.3-2.1c-0.3-0.9-3.4-3.1-4.4-1.8c-1,1.3,0.6,2.5,0,3.2c-0.6,0.7-1.3,4.6-1.6,4.6
					s-0.5-5.1-0.8-5.6c0,0,1.8-2.7,1.6-3.5c-0.2-0.8-0.5-3.7-1.6-3.4c-1.1,0.3-3.4,1.6-3.4,2.4s0.8,1.6,0.5,2.4
					c-0.3,0.9-4.6,6.3-3.4,10.3c0,0-3,7-5.6,9.1c-2.1,1.6-3.6,5.6-4.7,9.5c0,0.2,0,5.4-1.7,10.2c-0.9,2.5-2,2.9-2,4.2
					c0,0.8,0.6,3.4,1.1,5.7c0.3,1.5,0.6,2.9,0.6,3.4c0,1.2,1.3,1,1.9,0.9c0.6-0.1-2-7.8-1.5-9.1c0.5-1.3,3.2-6.8,5-6.8
					c1.7-0.1,2.7,0.5,2.7,0.5s-2.4,4.4-1.5,5.3c0.9,0.9,6.9,7.2,7.3,7.9c0.3,0.7-0.4,1.5,0.3,1.7c0.7,0.2,2.7,0.7,2.7-0.2
					s-0.9-3.4-3.2-5c-2.3-1.6-4.2-5.4-3.4-7c0.8-1.6,2.5-4.9,2.5-4.9s6.2,1.3,11-0.3c0,0-0.8,7-0.3,9.2c0.5,2.2,0,7,0.4,8
					c0.4,1,2.6,1.2,3.3,0.8c0.7-0.4-1.5-2.7-1.5-4.2c0-1.5,0.9-11.7,1.5-12c0.5-0.4,2.3-1.1,2.6-1.5c0,0,6.1,3.8,6.1,5.4
					c0,1.5-2.5,8-3.1,8.7c-0.5,0.7,1.6,1.9,2.4,2.1c0.7,0.2-0.2-2.6,0.9-4.9c1.1-2.3,3.3-5.7,2.7-7.3c-0.5-1.5-7.2-6.8-6.7-7.9
					c0,0,6,0.5,11.3-3c0.9-0.3,1.7-0.7,2.4-1.4c2.7-2.5,4.6-6.9,5.2-7.8c0.6-0.9,1.7-1.9,2.7-2c1.3-0.1,4.3-0.2,4.1-1.3
					C400.8,404.1,397.9,402.9,397.7,402.6z"/>
			</g>
			<g id="XMLID_65_">
				<path class="st8" d="M266,405.4c-1.1-0.6-6.1-1.5-6.7-2.1c-0.6-0.6-1.8,0.2-2,0.5c-0.2,0.3-2.8,2.6-3,3.5
					c-0.1,0.9-2,7.8-8.5,6.5c0,0-8.1-8.2-9.4-8.6c-1.3-0.4-2.5-1.7-2.7-2.1c-0.2-0.4,0.7-1.4,0.6-2.3c-0.1-0.8-4.5-0.8-4.5-2.1
					c0-1.3-0.6-4.1-1.3-4.8c-0.6-0.7-1.8-1.1-1.8-1.4c0-0.3,0.8-0.6,1-1.8c0.2-1.2,0.5-2.7-0.2-3.1c-0.6-0.4-3.3-0.7-3.8,0
					c-0.5,0.7,0.2,3.1,0,4.3c-0.2,1.1-1.1,3.3-1.1,3.3s-0.1-1.1,0-1.8c0.1-0.6,2-6,0-6.3c-2-0.2-3.6,1.3-3.6,2.5
					c0,1.2,0.5,2.5,0.5,2.5s-3.6,3-4.4,3.8c-0.8,0.8-2.1,1.8-1.5,3.4c0.6,1.6,1.8,2.6,1.7,3.8c-0.2,1.2-0.2,6-0.7,6.4
					c-0.5,0.3-5.3,5.4-5.9,8.3c0.1,2.1,0.1,4.5-0.3,5.8c-0.7,1.9-2.7,4.9-2.6,5.9c0.1,1,0.7,4.4,1.3,5.8c0.6,1.4,1.4,5.5,1.4,6.3
					c0,0.7,1.7,0.7,2.6,0.5c0.9-0.2-0.4-1.2-0.7-2c-0.4-0.7-1.8-5.3-1.8-6.7c0-1.4-0.7-2.6-0.1-3.7s2.9-5.6,3.2-5.5
					c0.3,0.1-1.6,5-1.6,5.5s4.9,9.3,4.8,10.4c-0.1,1.1,1.2,1.3,2.5,1.2c1.3-0.1,0-1.2-0.5-2.2c-0.5-1-4.3-7.9-4-9
					c0.3-1.1,4.2-8,4.8-7.6c2.1,1.1,9.8,1.8,12.5,0.4c0.8-0.4,1.1,7.8,0.4,9.3c-0.7,1.5-1.3,2.8-3,3.5c-1.6,0.7-2.6,1.4-3,1.4
					c-0.4,0-1.4-0.6-2-0.1c-0.7,0.5-2,1.7-1.7,2c0.3,0.3,4,0.2,5.4-0.4c1.5-0.7,5.2-3.1,6.2-3.5c0.9-0.4,1.2-9.4,1.5-10.2
					c0,0,2.3,6.2,2.7,8.1c0.4,1.9,1.4,4.9,1.2,5.5c-0.1,0.6-0.4,1.5,0.1,1.6s2.3,0.6,2.3-0.2c0-0.8-1.7-4.5-1.9-5.8
					c-0.2-1.3-0.3-10.4,0.3-11.3c0.6-0.9,2.2-0.9,3-1.3c0.4-0.2,8.4-1.5,12.6-3.8c2.1-1.4,3.3-3.4,4.8-6.2c0,0,1.4-3.3,2.4-3.2
					c1,0.1,5.2,1,5.4,0C267,407.5,267.1,406.1,266,405.4z"/>
			</g>
			<g id="XMLID_66_">
				<path id="XMLID_67_" class="st8" d="M414.3,442.2c-0.4,0.4-4.1-0.7-4.5-1.3c-0.4-0.6,0.1-1,0.7-2c0.7-1,2.6-5.4,2.9-6.1
					c0.3-0.7,0.6-3.9,0.6-4.8c0-0.9,0.9-6.2,1.4-7.3c0.5-1.2,0.6-4.2,1.2-5.2c0.7-1,1.2-2.3,1.2-2.6c0-0.3,1-1.5,1.3-2
					c0.3-0.5,0.3-1.2,0.6-1.8c0.2-0.4,0.4-0.8,0.7-1.1c0.2-0.2,0.3-0.2,0.6-0.3c0.2-0.1,0.5-0.3,0.7-0.3c0.4-0.1,0.7-0.1,1.1,0
					c0.5,0.1,1.3,0.4,1.5,0.9c0.1,0.2,0.1,0.2,0.2,0.3c0.1,0.1,0.2,0.1,0.2,0.3c0,0.1-0.1,0.3,0,0.4c0,0.1,0.2,0.3,0.2,0.4
					c0,0.2-0.1,0.2-0.2,0.3c-0.1,0.1-0.1,0.2-0.2,0.4c0,0-0.1,0.3-0.1,0.3c0,0,0.3,0.6,0,0.8c-0.3,0.2-0.6,1.3-1.3,1.3
					c0,0,0.5,1.4,0.8,1.8c0.3,0.4,0.5,0.6,0.5,0.6c0.1,0,1-0.1,1,0.1c0,0.2-0.1,0.4,0.2,0.6c0.3,0.1,0.7,1,0.4,1.2
					c-0.3,0.2-0.9,1-0.9,1.2c0,0.2,0.1,1.3-0.4,1.3c-0.5,0-1.1-0.1-1.1,0c0,0.2-0.8,3.1-1.3,4.1c-0.5,1-0.9,1.4-0.7,1.9
					c0.2,0.5,1.9,1.5,2.2,3.5c0.3,1.9-0.5,4.8-0.7,5.8c-0.2,1-0.5,2.9-0.3,3.1s0.2,0.5,0.5,0.5c0.3,0,1.6,0,1.7,0.4s-0.9,1.5-3,1.5
					c-2.1,0.1-2.5,0.2-2.9,0.1c-0.4-0.2-0.9,0.1-1.6,0c-0.7-0.1-2.2-1-2.8-1.1c-0.6-0.1-1.9-0.5-2-0.4c-0.1,0-0.2,0.9-0.1,1.1
					C412.6,440.3,414.9,441.7,414.3,442.2z"/>
			</g>
			<g id="XMLID_68_">
				<path id="XMLID_69_" class="st8" d="M415.6,418.7c-6.5,0-15.9-2.3-23.2-13.5l0.4-0.3c12.2,18.6,30.2,12.2,30.4,12.1l0.2,0.5
					C423.3,417.6,420.1,418.7,415.6,418.7z"/>
			</g>
			<g id="XMLID_70_">
				<path id="XMLID_71_" class="st8" d="M346.2,415.2c-3.9,0-11.6-1.4-17.2-11.6l0.4-0.2c4,7.2,9,9.8,12.4,10.8
					c3.8,1,6.6,0.4,6.7,0.3l0.1,0.5C348.7,415,347.7,415.2,346.2,415.2z"/>
			</g>
			<g id="XMLID_72_">
				<path id="XMLID_73_" class="st8" d="M277.8,417.7c-5.5,0-13.6-2.1-19.8-12.4l0.4-0.3c3,4.9,8.3,11,16.8,12
					c5.1,0.6,8.9-0.8,9-0.9l0.2,0.5C284.3,416.7,281.6,417.7,277.8,417.7z"/>
			</g>
		</g>
	</g>
</g>
<g id="Designed_By_Freepik">
</g>
</svg>
