<?xml version="1.0" encoding="utf-8"?>
<!-- Generator: Adobe Illustrator 19.0.0, SVG Export Plug-In . SVG Version: 6.00 Build 0)  -->
<svg version="1.1" id="Layer_1" xmlns="http://www.w3.org/2000/svg" xmlns:xlink="http://www.w3.org/1999/xlink" x="0px" y="0px"
	 viewBox="0 0 250 250" style="enable-background:new 0 0 250 250;" xml:space="preserve">
<style type="text/css">
	.st0{fill:#FCF3ED;}
	.st1{fill:url(#XMLID_9_);stroke:url(#XMLID_10_);stroke-width:2;stroke-miterlimit:10;}
	.st2{fill:url(#XMLID_12_);stroke:url(#XMLID_14_);stroke-width:2;stroke-miterlimit:10;}
	.st3{fill:url(#XMLID_15_);stroke:url(#XMLID_17_);stroke-width:2;stroke-miterlimit:10;}
</style>
<rect id="XMLID_13_" class="st0" width="250" height="250"/>
<g id="XMLID_8_">
	<g id="XMLID_1_">
		<linearGradient id="XMLID_9_" gradientUnits="userSpaceOnUse" x1="69.1709" y1="78.3288" x2="180.8291" y2="78.3288">
			<stop  offset="0" style="stop-color:#F6891F"/>
			<stop  offset="1" style="stop-color:#FBB03B"/>
		</linearGradient>
		<linearGradient id="XMLID_10_" gradientUnits="userSpaceOnUse" x1="68.1709" y1="78.3288" x2="181.8291" y2="78.3288">
			<stop  offset="0" style="stop-color:#F6891F"/>
			<stop  offset="1" style="stop-color:#FBB03B"/>
		</linearGradient>
		<path id="XMLID_4_" class="st1" d="M125,134.2c-30.8,0-55.8-25-55.8-55.8c0-30.8,25-55.8,55.8-55.8s55.8,25,55.8,55.8
			C180.8,109.1,155.8,134.2,125,134.2z M125,24.9c-29.4,0-53.4,24-53.4,53.4s24,53.4,53.4,53.4c29.4,0,53.4-24,53.4-53.4
			S154.4,24.9,125,24.9z"/>
	</g>
	<g id="XMLID_2_">
		<linearGradient id="XMLID_12_" gradientUnits="userSpaceOnUse" x1="42.8286" y1="183.9375" x2="207.1714" y2="183.9375">
			<stop  offset="0" style="stop-color:#F6891F"/>
			<stop  offset="1" style="stop-color:#FBB03B"/>
		</linearGradient>
		<linearGradient id="XMLID_14_" gradientUnits="userSpaceOnUse" x1="41.8286" y1="183.9375" x2="208.1714" y2="183.9375">
			<stop  offset="0" style="stop-color:#F6891F"/>
			<stop  offset="1" style="stop-color:#FBB03B"/>
		</linearGradient>
		<path id="XMLID_16_" class="st2" d="M207.2,226.1c0,1.1,0,2.3-0.1,3.4h-1.2c0-1.1,0.1-2.3,0.1-3.4c0-47.7-36.3-86.5-81-86.5
			s-81,38.8-81,86.5c0,1.1,0,2.3,0.1,3.4h-1.2c0-1.1-0.1-2.3-0.1-3.4c0-48.5,36.8-87.7,82.2-87.7S207.2,177.6,207.2,226.1z"/>
		<linearGradient id="XMLID_15_" gradientUnits="userSpaceOnUse" x1="41.61" y1="183.3281" x2="208.39" y2="183.3281">
			<stop  offset="0" style="stop-color:#F6891F"/>
			<stop  offset="1" style="stop-color:#FBB03B"/>
		</linearGradient>
		<linearGradient id="XMLID_17_" gradientUnits="userSpaceOnUse" x1="40.61" y1="183.3281" x2="209.39" y2="183.3281">
			<stop  offset="0" style="stop-color:#F6891F"/>
			<stop  offset="1" style="stop-color:#FBB03B"/>
		</linearGradient>
		<path id="XMLID_5_" class="st3" d="M125,137.2c-46,0-83.4,39.9-83.4,88.9c0,1.1,0,2.3,0.1,3.4h2.4c0-1.1-0.1-2.3-0.1-3.4
			c0-47.7,36.3-86.5,81-86.5s81,38.8,81,86.5c0,1.1,0,2.3-0.1,3.4h2.4c0-1.1,0.1-2.3,0.1-3.4C208.4,177.1,171,137.2,125,137.2z"/>
	</g>
</g>
</svg>
