<?xml version="1.0" encoding="utf-8"?>
<!-- Generator: Adobe Illustrator 19.0.0, SVG Export Plug-In . SVG Version: 6.00 Build 0)  -->
<svg version="1.1" id="Layer_1" xmlns="http://www.w3.org/2000/svg" xmlns:xlink="http://www.w3.org/1999/xlink" x="0px" y="0px"
	 viewBox="0 0 180 180" style="enable-background:new 0 0 180 180;" xml:space="preserve">
<style type="text/css">
	.st0{opacity:0.34;fill:#808082;}
	.st1{fill:#808082;}
	.st2{fill:#414042;}
	.st3{fill:#231F20;}
	.st4{fill:#E7D5B6;}
	.st5{fill:#FFEAC7;}
	.st6{fill:#F1A240;}
	.st7{fill:#603913;}
	.st8{fill:#D08D35;}
	.st9{fill:#FFFFFF;}
	.st10{fill:#202724;}
	.st11{opacity:0.4;fill:#202724;enable-background:new    ;}
	.st12{enable-background:new    ;}
	.st13{opacity:0.28;fill:#FCFCFC;}
	.st14{font-family:'MyriadPro-Regular';}
	.st15{font-size:1.2px;}
</style>
<path class="st0" d="M134.2,152.3H39.8c-3.8,0-6.9-3.1-6.9-6.9v0c0-3.8,3.1-6.9,6.9-6.9h94.4c3.8,0,6.9,3.1,6.9,6.9v0
	C141.1,149.2,138,152.3,134.2,152.3z"/>
<path class="st0" d="M134.2,152.3H71.7c-3.8,0-6.9-3.1-6.9-6.9v0c0-3.8,3.1-6.9,6.9-6.9h62.4c3.8,0,6.9,3.1,6.9,6.9v0
	C141.1,149.2,138,152.3,134.2,152.3z"/>
<path class="st0" d="M134.2,152.3h-8.6c-3.8,0-6.9-3.1-6.9-6.9v0c0-3.8,3.1-6.9,6.9-6.9h8.6c3.8,0,6.9,3.1,6.9,6.9v0
	C141.1,149.2,138,152.3,134.2,152.3z"/>
<path id="XMLID_66_" class="st1" d="M114.6,80.6c0.4,1.4,1,2.8,1.7,4l-2.1,2.6c-0.7,0.8-0.6,2.1,0.2,2.8l3.5,3.5
	c0.8,0.8,2,0.8,2.8,0.2l2.6-2c1.3,0.8,2.7,1.4,4.2,1.8l0.4,3.3c0.1,1.1,1,1.9,2.1,1.9h5c1.1,0,2-0.8,2.1-1.9l0.4-3.2
	c1.6-0.4,3.1-1,4.5-1.8l2.5,2c0.8,0.7,2.1,0.6,2.8-0.2l3.5-3.5c0.8-0.8,0.8-2,0.2-2.8l-1.9-2.5c0.8-1.4,1.4-2.9,1.9-4.4l3-0.3
	c1.1-0.1,1.9-1,1.9-2.1v-5c0-1.1-0.8-2-1.9-2.1l-2.9-0.3c-0.4-1.5-1-3-1.8-4.4l1.8-2.3c0.7-0.8,0.6-2.1-0.2-2.8l-3.5-3.5
	c-0.8-0.8-2-0.8-2.8-0.2l-2.2,1.8c-1.4-0.8-3-1.5-4.6-1.9l-0.3-2.9c-0.1-1.1-1-1.9-2.1-1.9h-5c-1.1,0-2,0.8-2.1,1.9l-0.3,2.9
	c-1.7,0.4-3.2,1.1-4.7,2l-2.3-1.8c-0.8-0.7-2.1-0.6-2.8,0.2l-3.5,3.5c-0.8,0.8-0.8,2-0.2,2.8l1.9,2.4c-0.8,1.4-1.4,2.9-1.7,4.4
	l-3.1,0.4c-1.1,0.1-1.9,1-1.9,2.1v5c0,1.1,0.8,2,1.9,2.1L114.6,80.6z M132.7,67.1c4.6,0,8.3,3.7,8.3,8.3c0,4.6-3.7,8.3-8.3,8.3
	s-8.3-3.7-8.3-8.3C124.4,70.8,128.1,67.1,132.7,67.1z"/>
<path id="XMLID_53_" class="st2" d="M61.9,74.4l-2.6-2.2c-0.8-0.7-2-0.7-2.8,0.1L55,73.7c-1.2-0.6-2.5-1-3.9-1.3l-0.4-2
	c-0.2-1-1.2-1.8-2.2-1.7L45,69c-1.1,0.1-1.9,1-1.9,2L43,73c-1.3,0.5-2.6,1.1-3.7,2l-1.7-1.2c-0.9-0.6-2.1-0.4-2.8,0.4l-2.2,2.7
	c-0.7,0.8-0.7,2,0.1,2.8l1.5,1.6c-0.5,1.2-0.9,2.4-1.1,3.7l-2.2,0.4c-1,0.2-1.8,1.2-1.7,2.2l0.3,3.4c0.1,1.1,1,1.9,2,1.9l2.4,0.1
	c0.4,1.1,1,2.2,1.7,3.2l-1.3,2c-0.6,0.9-0.4,2.1,0.4,2.8l2.6,2.2c0.8,0.7,2,0.7,2.8-0.1l1.7-1.6c1.1,0.5,2.3,0.9,3.5,1.2l0.5,2.4
	c0.2,1,1.2,1.8,2.2,1.7l3.4-0.3c1.1-0.1,1.9-1,1.9-2l0.1-2.3c1.3-0.4,2.4-1,3.5-1.8l1.9,1.3c0.9,0.6,2.1,0.4,2.8-0.4l2.2-2.6
	c0.7-0.8,0.7-2-0.1-2.8l-1.5-1.6c0.6-1.2,1-2.4,1.2-3.7l2.1-0.4c1-0.2,1.8-1.2,1.7-2.2L67,84.4c-0.1-1.1-1-1.9-2-1.9l-2.1-0.1
	c-0.4-1.2-1-2.4-1.8-3.5l1.1-1.7C62.9,76.3,62.7,75.1,61.9,74.4z M48.9,94.4c-3.7,0.3-7-2.5-7.3-6.2s2.5-7,6.2-7.3s7,2.5,7.3,6.2
	C55.4,90.8,52.6,94,48.9,94.4z"/>
<path id="XMLID_47_" class="st1" d="M50.7,37.6l-2.6-2.2c-0.8-0.7-2-0.7-2.8,0.1l-1.5,1.4c-1.2-0.6-2.5-1-3.9-1.3l-0.4-2
	c-0.2-1-1.2-1.8-2.2-1.7l-3.4,0.3c-1.1,0.1-1.9,1-1.9,2l-0.1,2c-1.3,0.5-2.6,1.1-3.7,2L26.5,37c-0.9-0.6-2.1-0.4-2.8,0.4l-2.2,2.7
	c-0.7,0.8-0.7,2,0.1,2.8l1.5,1.6c-0.5,1.2-0.9,2.4-1.1,3.7l-2.2,0.4c-1,0.2-1.8,1.2-1.7,2.2l0.3,3.4c0.1,1.1,1,1.9,2,1.9l2.4,0.1
	c0.4,1.1,1,2.2,1.7,3.2l-1.3,2c-0.6,0.9-0.4,2.1,0.4,2.8l2.6,2.2c0.8,0.7,2,0.7,2.8-0.1l1.7-1.6c1.1,0.5,2.3,0.9,3.5,1.2l0.5,2.4
	c0.2,1,1.2,1.8,2.2,1.7l3.4-0.3c1.1-0.1,1.9-1,1.9-2l0.1-2.3c1.3-0.4,2.4-1,3.5-1.8l1.9,1.3c0.9,0.6,2.1,0.4,2.8-0.4l2.2-2.6
	c0.7-0.8,0.7-2-0.1-2.8l-1.5-1.6c0.6-1.2,1-2.4,1.2-3.7l2.1-0.4c1-0.2,1.8-1.2,1.7-2.2l-0.3-3.4c-0.1-1.1-1-1.9-2-1.9l-2.1-0.1
	c-0.4-1.2-1-2.4-1.8-3.5l1.1-1.7C51.7,39.5,51.5,38.3,50.7,37.6z M37.7,57.5c-3.7,0.3-7-2.5-7.3-6.2s2.5-7,6.2-7.3s7,2.5,7.3,6.2
	S41.4,57.2,37.7,57.5z"/>
<path id="XMLID_42_" class="st3" d="M105.5,34.2c-1.1,0.1-1.9,1-1.9,2.1v2.1c0,1.1,0.8,2,1.8,2.1l1.6,0.2c0.3,0.9,0.6,1.9,1.1,2.7
	l-1,1.2c-0.7,0.8-0.6,2,0.1,2.8l1.5,1.5c0.7,0.8,1.9,0.8,2.8,0.2l1.2-1c0.9,0.5,1.8,0.9,2.8,1.2l0.2,1.6c0.1,1.1,1,1.9,2.1,1.9h2.1
	c1.1,0,2-0.8,2.1-1.8l0.2-1.5c1.1-0.3,2.1-0.7,3-1.2l1.2,0.9c0.8,0.7,2,0.6,2.8-0.1l1.5-1.5c0.8-0.7,0.8-1.9,0.2-2.8l-0.9-1.2
	c0.6-0.9,1-1.9,1.3-2.9l1.4-0.1c1.1-0.1,1.9-1,1.9-2.1v-2.1c0-1.1-0.8-2-1.8-2.1l-1.4-0.2c-0.3-1-0.6-2-1.1-2.9l0.8-1
	c0.7-0.8,0.6-2-0.1-2.8l-1.5-1.5c-0.7-0.8-1.9-0.8-2.8-0.2l-1,0.8c-1-0.6-2-1-3.1-1.3l-0.1-1.3c-0.1-1.1-1-1.9-2.1-1.9h-2.1
	c-1.1,0-2,0.8-2.1,1.8l-0.2,1.3c-1.1,0.3-2.2,0.7-3.2,1.3l-1-0.9c-0.8-0.7-2-0.6-2.8,0.1l-1.5,1.5c-0.8,0.7-0.8,1.9-0.2,2.8l0.9,1.2
	c-0.5,0.9-0.9,1.9-1.2,2.9L105.5,34.2z M119.2,31.8c3,0,5.5,2.5,5.4,5.6c0,3-2.5,5.5-5.6,5.4c-3,0-5.5-2.5-5.4-5.6
	C113.6,34.2,116.1,31.8,119.2,31.8z"/>
<path id="XMLID_35_" class="st2" d="M52.2,26.6c-0.9,0.1-1.6,0.9-1.6,1.8v1.8c0,0.9,0.7,1.7,1.6,1.8l1.4,0.2c0.2,0.8,0.5,1.6,1,2.3
	l-0.9,1.1c-0.6,0.7-0.5,1.8,0.1,2.4l1.3,1.3c0.6,0.7,1.7,0.7,2.4,0.2l1.1-0.8c0.8,0.5,1.6,0.8,2.4,1.1l0.1,1.4
	c0.1,0.9,0.9,1.6,1.8,1.6h1.8c0.9,0,1.7-0.7,1.8-1.6l0.2-1.3c0.9-0.2,1.8-0.6,2.6-1l1,0.8c0.7,0.6,1.8,0.5,2.4-0.1l1.3-1.3
	c0.7-0.6,0.7-1.7,0.2-2.4l-0.8-1c0.5-0.8,0.9-1.7,1.1-2.5l1.2-0.1c0.9-0.1,1.6-0.9,1.6-1.8v-1.8c0-0.9-0.7-1.7-1.6-1.8l-1.2-0.2
	c-0.2-0.9-0.6-1.7-1-2.5l0.7-0.9c0.6-0.7,0.5-1.8-0.1-2.4L73,19.4c-0.6-0.7-1.7-0.7-2.4-0.2L69.7,20c-0.8-0.5-1.7-0.9-2.6-1.1
	L67,17.8c-0.2-1.1-1-1.8-1.9-1.8h-1.8c-0.9,0-1.7,0.7-1.8,1.6l-0.1,1.1c-1,0.2-1.9,0.6-2.7,1.1l-0.9-0.7c-0.7-0.6-1.8-0.5-2.4,0.1
	l-1.3,1.3c-0.7,0.6-0.7,1.7-0.2,2.4l0.8,1c-0.5,0.8-0.8,1.7-1,2.5L52.2,26.6z M64.1,24.5c2.6,0,4.8,2.2,4.7,4.8
	c0,2.6-2.2,4.8-4.8,4.7c-2.6,0-4.8-2.2-4.7-4.8C59.3,26.6,61.5,24.5,64.1,24.5z"/>
<g id="XMLID_2_">
	<g id="XMLID_39_">
		<rect id="XMLID_95_" x="79.1" y="73.2" class="st4" width="13.3" height="13.5"/>
		<path id="XMLID_92_" class="st5" d="M105.4,56.7c-0.3,0-0.5,0.1-0.7,0.4c0-0.1,0-0.2-0.1-0.2c0-0.2-0.1-0.3-0.1-0.5
			s-0.1-0.3-0.1-0.5c0-0.1-0.1-0.3-0.1-0.4c0-0.2-0.1-0.3-0.2-0.5c0-0.1-0.1-0.3-0.1-0.4c-0.1-0.2-0.1-0.3-0.2-0.5
			c0-0.1-0.1-0.2-0.1-0.4c-0.1-0.2-0.1-0.3-0.2-0.5c0-0.1-0.1-0.2-0.1-0.3c-0.1-0.2-0.2-0.3-0.3-0.5c-0.1-0.1-0.1-0.2-0.2-0.3
			c-0.1-0.2-0.2-0.3-0.3-0.5c0-0.1-0.1-0.2-0.2-0.3c-0.1-0.2-0.2-0.4-0.3-0.5c0-0.1-0.1-0.2-0.1-0.2c-0.1-0.2-0.2-0.4-0.4-0.5
			c0-0.1-0.1-0.1-0.1-0.2c-0.1-0.2-0.3-0.4-0.4-0.5c0-0.1-0.1-0.1-0.1-0.2c-0.1-0.2-0.3-0.4-0.4-0.5c0-0.1-0.1-0.1-0.1-0.2
			c-0.2-0.2-0.3-0.4-0.5-0.5l-0.1-0.1c-0.2-0.2-0.3-0.4-0.5-0.5l-0.1-0.1c-0.2-0.2-0.4-0.3-0.6-0.5l-0.1-0.1
			c-0.2-0.2-0.4-0.3-0.6-0.5c0,0-0.1,0-0.1-0.1c-0.2-0.2-0.4-0.3-0.6-0.5c0,0,0,0-0.1-0.1c-0.2-0.2-0.5-0.3-0.7-0.5c0,0,0,0-0.1,0
			c-0.2-0.2-0.5-0.3-0.7-0.4l0,0c-0.2-0.1-0.5-0.3-0.8-0.4l0,0c-0.3-0.1-0.5-0.3-0.8-0.4l0,0c-0.3-0.1-0.5-0.2-0.8-0.4l0,0
			c-1.7-0.7-3.5-1.1-5.3-1.2l0,0c-0.3,0-0.6,0-0.9,0l0,0c-0.2,0-0.3,0-0.5,0c-8.9,0-16.3,6.4-18.2,14.9C68.3,57,68.1,57,68,57
			c-1.1,0-2,2.3-2,5c0,2.8,0.9,5,2,5c0.2,0,0.5-0.1,0.7-0.3c2.3,8,9.5,13.9,18,13.9c0.2,0,0.3,0,0.5,0l0,0c0.3,0,0.6,0,0.9,0l0,0
			c1.9-0.1,3.7-0.6,5.3-1.2l0,0c0.3-0.1,0.5-0.2,0.8-0.3l0,0c0.3-0.1,0.5-0.3,0.8-0.4l0,0c0.3-0.1,0.5-0.3,0.8-0.4l0,0
			c0.2-0.1,0.5-0.3,0.7-0.4c0,0,0,0,0.1,0c0.2-0.2,0.5-0.3,0.7-0.5c0,0,0,0,0.1-0.1c0.2-0.2,0.4-0.3,0.6-0.5c0,0,0.1,0,0.1-0.1
			c0.2-0.2,0.4-0.3,0.6-0.5l0.1-0.1c0.2-0.2,0.4-0.3,0.6-0.5l0.1-0.1c0.2-0.2,0.3-0.3,0.5-0.5l0.1-0.1c0.2-0.2,0.3-0.3,0.5-0.5
			c0-0.1,0.1-0.1,0.1-0.2c0.2-0.2,0.3-0.4,0.4-0.5c0-0.1,0.1-0.1,0.1-0.2c0.1-0.2,0.3-0.4,0.4-0.5c0-0.1,0.1-0.1,0.1-0.2
			c0.1-0.2,0.2-0.4,0.4-0.5c0.1-0.1,0.1-0.2,0.1-0.2c0.1-0.2,0.2-0.4,0.3-0.5c0.1-0.1,0.1-0.2,0.2-0.3c0.1-0.2,0.2-0.3,0.3-0.5
			c0.1-0.1,0.1-0.2,0.2-0.3c0.1-0.2,0.2-0.3,0.3-0.5c0.1-0.1,0.1-0.2,0.1-0.3c0.1-0.2,0.2-0.3,0.2-0.5c0-0.1,0.1-0.2,0.1-0.4
			c0.1-0.2,0.1-0.3,0.2-0.5c0-0.1,0.1-0.3,0.1-0.4c0.1-0.2,0.1-0.3,0.2-0.5c0-0.1,0.1-0.3,0.1-0.4s0-0.1,0.1-0.2
			c0.3,0.4,0.6,0.7,1,0.7c1.1,0,2-2.3,2-5C107.3,59,106.5,56.7,105.4,56.7z"/>
		<path id="XMLID_89_" class="st6" d="M129.5,129.2c0-16.5-6.4-33.1-15.3-38.3C109,87.4,99.6,85,86,85s-23.7,2.4-29,5.8
			c-9,5.2-14.6,21.9-14.6,38.4v4.6h15.8v-4.6c0-10.9,3.5-17.7,5.7-21.1v25.7h43.9V109c2.4,3.7,5.9,10.2,5.9,20.1v4.6h15.8V129.2z"/>
		<path id="XMLID_88_" class="st7" d="M104.3,55.9c-0.1-0.2-0.1-0.4-0.2-0.6c-0.1-0.3-0.2-0.6-0.3-0.9c-0.1-0.3-0.2-0.5-0.3-0.8
			c-0.1-0.2-0.2-0.5-0.3-0.7c-0.1-0.3-0.3-0.6-0.5-0.9c-0.1-0.2-0.2-0.4-0.3-0.5c-0.2-0.3-0.4-0.6-0.6-1c-0.1-0.1-0.2-0.3-0.3-0.4
			c-0.2-0.3-0.5-0.7-0.7-1c-0.1-0.1-0.1-0.2-0.2-0.3c-0.3-0.3-0.6-0.7-0.9-1c-0.1-0.1-0.1-0.1-0.2-0.2c-0.3-0.3-0.7-0.7-1-1
			l-0.1-0.1c-0.4-0.3-0.8-0.7-1.2-1l0,0c-3.1-2.3-6.9-3.6-10.9-3.6c-10.1,0-18.3,8.2-18.7,18.4c1.2-1.3,1.9-3.3,3-4.6
			c1.9-2.2,4.4-3.8,6.5-5.7c1.5-1.4,4-1.6,5.4,0c1.1,1.2,2.6,2.4,4.2,3.4l0,0l0,0c0.5,0.3,1.1,0.6,1.7,0.8c0.1,0,0.1,0,0.2,0.1
			c0.2,0.1,0.3,0.1,0.5,0.2h0.1c0.3,0.1,0.6,0.2,0.9,0.3c0.1,0,0.3,0.1,0.4,0.1s0.3,0.1,0.4,0.1c0.2,0,0.5,0.1,0.7,0.1
			c0.1,0,0.2,0,0.3,0c0.2,0,0.4,0,0.6,0c0.1,0,0.2,0,0.2,0c0.3,0,0.5,0,0.8-0.1c0.1,0,0.2,0,0.2,0c0.2,0,0.5-0.1,0.7-0.2h0.1
			c0.3-0.1,0.5-0.2,0.8-0.3c0.1,0,0.1-0.1,0.2-0.1c0.3-0.1,0.5-0.3,0.8-0.4c1.8-1.1,4.2-0.4,5.2,1.4c0.5,0.8,1.8,1.5,3,2.1
			C104.6,57,104.5,56.4,104.3,55.9z"/>
		<g id="XMLID_64_">
			<g id="XMLID_68_">
				<path id="XMLID_85_" class="st6" d="M106.7,50.8c0-0.2-0.1-0.3-0.1-0.5c-0.3-1.1-1.2-4.3-1.2-5.4c0-9.1-8.5-16.4-19-16.4
					s-19,7.4-19,16.4c0,1-0.9,4.1-1.6,5.9H106.7z"/>
				<path id="XMLID_82_" class="st6" d="M86.1,34.4c2.7,0,4.9-2.2,4.9-4.9s-2.2-4.9-4.9-4.9c-2.7,0-4.9,2.2-4.9,4.9
					S83.4,34.4,86.1,34.4z"/>
				<g id="XMLID_69_">
					<g id="XMLID_56_">
						<g id="XMLID_59_">
							<path id="XMLID_60_" class="st8" d="M75.2,31.6c1.7-1.1,3.6-1.9,5.7-2.5c0.1,0.3,0.2,0.7,0.2,1.1v13.2c0,1.6-1.3,3-3,3l0,0
								c-1.6,0-3-1.3-3-3V31.6H75.2z"/>
						</g>
						<g id="XMLID_57_">
							<path id="XMLID_58_" class="st8" d="M91.4,29c2,0.5,3.9,1.2,5.7,2.2v12.2c0,1.6-1.3,3-3,3l0,0c-1.6,0-3-1.3-3-3V30.2
								C91.1,29.8,91.2,29.4,91.4,29z"/>
						</g>
					</g>
				</g>
			</g>
			<path id="XMLID_65_" class="st8" d="M107.9,51c0,0.9-0.7,1.6-1.5,1.6H66.3c-0.8,0-1.5-0.7-1.5-1.6l0,0c0-0.9,0.7-1.6,1.5-1.6
				h40.1C107.2,49.4,107.9,50.2,107.9,51L107.9,51z"/>
		</g>
		<path id="XMLID_63_" class="st4" d="M86.7,84.9"/>
		<path id="XMLID_62_" class="st9" d="M77.4,85.3l8.5,27.2l7.9-27.2c0,0-1.2-0.3-7.5-0.3C80.1,85,77.4,85.3,77.4,85.3z"/>
		<ellipse id="XMLID_54_" class="st10" cx="86.1" cy="84.9" rx="4.3" ry="2.5"/>
		<polygon id="XMLID_51_" class="st10" points="85,86.2 83.1,103.6 85.9,112.5 88.7,103.6 87.7,86.3 		"/>
		<rect id="XMLID_49_" x="92.6" y="112.2" class="st9" width="11.3" height="6.1"/>
		<polygon id="XMLID_46_" class="st11" points="93.9,85.3 100.7,92.2 85.9,112.5 		"/>
		<polygon id="XMLID_43_" class="st11" points="77.4,85.3 71.5,92.2 86,112.6 		"/>
		<rect id="XMLID_40_" x="85.3" y="112.3" class="st11" width="1.3" height="21.5"/>
	</g>
	<g id="XMLID_3_">
		<g id="XMLID_6_">
			<path id="XMLID_38_" class="st2" d="M50.4,90.1h73.7c0.7,0,1.2,0.6,1.1,1.2l-5.6,36.9c-0.1,0.5-0.5,0.9-1.1,0.9h-63
				c-0.5,0-1-0.4-1.1-0.9l-5.1-36.9C49.3,90.7,49.8,90.1,50.4,90.1z"/>
			<rect id="XMLID_7_" x="54.4" y="128.3" class="st10" width="65.2" height="5.3"/>
		</g>
		<polygon id="XMLID_5_" class="st9" points="80.5,104.2 94.1,104.2 93,111.1 81.5,111.1 		"/>
		<path id="XMLID_4_" class="st7" d="M14.7,133.1h148.3c2.6,0,4.6,2.1,4.6,4.6v0c0,2.6-2.1,4.6-4.6,4.6H14.7c-2.6,0-4.6-2.1-4.6-4.6
			v0C10.1,135.2,12.2,133.1,14.7,133.1z"/>
		<g id="XMLID_1_" class="st12">
			<path class="st9" d="M59.3,117.4c0-1,0.8-1.7,1.9-1.7c0.8,0,1.4,0.4,1.6,1l-1,0.5c-0.1-0.3-0.3-0.4-0.6-0.4
				c-0.3,0-0.6,0.2-0.6,0.6c0,0.4,0.3,0.6,0.6,0.6c0.2,0,0.4-0.1,0.6-0.4l1,0.5c-0.2,0.6-0.8,1-1.6,1
				C60.1,119.1,59.3,118.4,59.3,117.4z"/>
			<path class="st9" d="M66.7,115.8v3.3h-1.3v-0.3c-0.2,0.2-0.5,0.3-0.9,0.3c-0.9,0-1.6-0.6-1.6-1.7s0.7-1.7,1.6-1.7
				c0.4,0,0.6,0.1,0.8,0.3v-0.2H66.7z M65.3,117.4c0-0.4-0.2-0.6-0.5-0.6c-0.3,0-0.5,0.2-0.5,0.6s0.2,0.6,0.5,0.6
				C65.1,118.1,65.3,117.8,65.3,117.4z"/>
			<path class="st9" d="M72.9,117.2v1.9h-1.4v-1.6c0-0.4-0.1-0.6-0.4-0.6c-0.2,0-0.4,0.2-0.4,0.6v1.6h-1.4v-1.6
				c0-0.4-0.1-0.6-0.4-0.6c-0.2,0-0.4,0.2-0.4,0.6v1.6h-1.4v-3.3h1.3v0.3c0.2-0.2,0.6-0.4,0.9-0.4c0.4,0,0.8,0.2,1,0.5
				c0.3-0.3,0.6-0.5,1.1-0.5C72.3,115.7,72.9,116.2,72.9,117.2z"/>
			<path class="st9" d="M77.2,117.4c0,1.1-0.7,1.7-1.6,1.7c-0.4,0-0.6-0.1-0.8-0.3v1.4h-1.4v-4.4h1.3v0.3c0.2-0.2,0.5-0.3,0.9-0.3
				C76.5,115.7,77.2,116.4,77.2,117.4z M75.9,117.4c0-0.4-0.2-0.6-0.5-0.6c-0.3,0-0.5,0.2-0.5,0.6s0.2,0.6,0.5,0.6
				C75.6,118.1,75.9,117.9,75.9,117.4z"/>
			<path class="st9" d="M81.2,115.8v3.3H80v-0.3c-0.2,0.3-0.6,0.4-0.9,0.4c-0.8,0-1.4-0.5-1.4-1.5v-1.8H79v1.6
				c0,0.5,0.2,0.6,0.4,0.6c0.2,0,0.5-0.2,0.5-0.7v-1.5H81.2z"/>
			<path class="st9" d="M81.6,118.8l0.4-0.9c0.3,0.2,0.8,0.3,1.1,0.3c0.3,0,0.4-0.1,0.4-0.2c0-0.3-1.9,0.1-1.9-1.2
				c0-0.6,0.6-1.1,1.7-1.1c0.5,0,1,0.1,1.3,0.3l-0.4,0.9c-0.3-0.2-0.7-0.2-0.9-0.2c-0.3,0-0.4,0.1-0.4,0.2c0,0.3,1.9-0.1,1.9,1.2
				c0,0.6-0.6,1.1-1.7,1.1C82.6,119.1,82,119,81.6,118.8z"/>
			<path class="st9" d="M87.5,118.9c-0.2,0.1-0.5,0.2-0.8,0.2c-0.9,0-1.4-0.4-1.4-1.3v-2.7h1.4v0.9h0.7v1h-0.7v0.8
				c0,0.2,0.1,0.3,0.3,0.3c0.1,0,0.2,0,0.3-0.1L87.5,118.9z"/>
			<path class="st9" d="M91.3,115.8v3.3H90v-0.3c-0.2,0.2-0.5,0.3-0.9,0.3c-0.9,0-1.6-0.6-1.6-1.7s0.7-1.7,1.6-1.7
				c0.4,0,0.6,0.1,0.8,0.3v-0.2H91.3z M90,117.4c0-0.4-0.2-0.6-0.5-0.6c-0.3,0-0.5,0.2-0.5,0.6s0.2,0.6,0.5,0.6
				C89.7,118.1,90,117.8,90,117.4z"/>
			<path class="st9" d="M91.9,117.9v-3.2h1.4v3.2c0,0.2,0.1,0.3,0.3,0.3c0.1,0,0.2,0,0.2-0.1l0.1,1c-0.2,0.1-0.4,0.1-0.6,0.1
				C92.4,119.1,91.9,118.7,91.9,117.9z"/>
			<path class="st9" d="M95.8,118.1l-0.2,0.2v0.8h-1.4v-4.4h1.4v2.1l0.9-1h1.6l-1.4,1.4l1.5,1.9h-1.6L95.8,118.1z"/>
			<path class="st9" d="M101.9,115.8v3.3h-1.3v-0.3c-0.2,0.2-0.5,0.3-0.9,0.3c-0.9,0-1.6-0.6-1.6-1.7s0.7-1.7,1.6-1.7
				c0.4,0,0.6,0.1,0.8,0.3v-0.2H101.9z M100.6,117.4c0-0.4-0.2-0.6-0.5-0.6c-0.3,0-0.5,0.2-0.5,0.6s0.2,0.6,0.5,0.6
				C100.3,118.1,100.6,117.8,100.6,117.4z"/>
			<path class="st9" d="M104.7,118.9c-0.2,0.1-0.5,0.2-0.8,0.2c-0.9,0-1.4-0.4-1.4-1.3v-2.7h1.4v0.9h0.7v1h-0.7v0.8
				c0,0.2,0.1,0.3,0.3,0.3c0.1,0,0.2,0,0.3-0.1L104.7,118.9z"/>
			<path class="st9" d="M104.9,114.8c0-0.4,0.3-0.7,0.8-0.7s0.8,0.3,0.8,0.7c0,0.4-0.3,0.7-0.8,0.7S104.9,115.2,104.9,114.8z
				 M105.1,115.8h1.4v3.3h-1.4V115.8z"/>
			<path class="st9" d="M110.7,115.8l-1.3,3.3H108l-1.3-3.3h1.4l0.7,1.8l0.7-1.8H110.7z"/>
			<path class="st9" d="M113.3,117.9l0.7,0.7c-0.3,0.3-0.8,0.5-1.4,0.5c-1.2,0-2-0.7-2-1.7c0-1,0.8-1.7,1.9-1.7c1,0,1.8,0.6,1.8,1.7
				l-2.2,0.4c0.1,0.2,0.3,0.3,0.6,0.3C112.9,118.1,113.1,118,113.3,117.9z M111.9,117.2l1-0.2c-0.1-0.2-0.2-0.3-0.5-0.3
				C112.2,116.6,112,116.8,111.9,117.2z"/>
		</g>
	</g>
</g>
<text transform="matrix(1 0 0 1 83.8049 131.3658)" class="st13 st14 st15">solinkz-tech</text>
</svg>
