<?xml version="1.0" encoding="utf-8"?>
<!-- Generator: Adobe Illustrator 19.0.0, SVG Export Plug-In . SVG Version: 6.00 Build 0)  -->
<svg version="1.1" id="Layer_1" xmlns="http://www.w3.org/2000/svg" xmlns:xlink="http://www.w3.org/1999/xlink" x="0px" y="0px"
	 viewBox="0 0 1280 800" style="enable-background:new 0 0 1280 800;" xml:space="preserve">
<style type="text/css">
	.st0{opacity:0.18;}
	.st1{fill:#414042;}
	.st2{opacity:0.18;fill:#808082;}
	.st3{opacity:0.18;fill:#EF7922;}
	.st4{opacity:0.18;fill:#414042;}
	.st5{opacity:0.18;fill:#231F20;}
	.st6{fill:#EF7922;}
</style>
<g id="XMLID_36_" class="st0">
	<path id="XMLID_37_" class="st1" d="M692.5,751.7L692,751c-1.1-1.1-2.3-1.9-3.6-2.5l0-36.2c1.3-0.6,2.5-1.4,3.6-2.5l0.5-0.7
		c4.3-4.9,4.1-12.3-0.5-17c-1.4-1.4-3-2.3-4.7-2.9V701c0,0.6-0.2,1.2-0.4,1.7c-0.7,1.4-2.1,2.4-3.8,2.4c-1.1,0-2.2-0.5-2.9-1.2
		c-0.3-0.3-0.6-0.8-0.8-1.2c-0.2-0.5-0.4-1.1-0.4-1.7l0-11.7c-1.7,0.6-3.3,1.5-4.7,2.9c-4.7,4.7-4.8,12.1-0.5,17l0.5,0.7
		c1.1,1.1,2.3,1.9,3.6,2.5v36.2c-1.3,0.6-2.5,1.4-3.6,2.5l-0.5,0.7c-4.3,4.9-4.1,12.3,0.5,17c1.4,1.4,3,2.3,4.7,2.9l0-11.7
		c0-0.6,0.2-1.2,0.4-1.7c0.7-1.4,2.1-2.4,3.8-2.4c1.1,0,2.2,0.5,2.9,1.2c0.3,0.3,0.6,0.8,0.8,1.2c0.2,0.5,0.4,1.1,0.4,1.7l0,11.7
		c1.7-0.6,3.3-1.5,4.7-2.9C696.7,764,696.8,756.6,692.5,751.7z"/>
</g>
<g id="XMLID_60_" class="st0">
	<path id="XMLID_61_" class="st1" d="M122.1,733.9l-0.1-0.5c-0.3-0.9-0.7-1.8-1.2-2.5l11.6-20c0.9,0.1,1.9,0,2.8-0.2l0.5-0.2
		c3.9-1.3,6.2-5.5,5.1-9.6c-0.3-1.2-0.9-2.2-1.6-3.1l-3.8,6.5c-0.2,0.3-0.5,0.6-0.8,0.8c-0.8,0.6-1.9,0.7-2.9,0.1
		c-0.6-0.4-1.1-1-1.2-1.6c-0.1-0.3-0.1-0.6-0.1-0.9c0-0.4,0.1-0.7,0.3-1.1l3.8-6.5c-1.1-0.2-2.3-0.2-3.5,0.1
		c-4.1,1.1-6.5,5.1-5.7,9.2l0.1,0.5c0.2,0.9,0.7,1.8,1.2,2.5l-11.6,20c-0.9-0.1-1.9,0-2.8,0.2l-0.5,0.2c-3.9,1.3-6.2,5.5-5.1,9.6
		c0.3,1.2,0.9,2.2,1.6,3.1l3.8-6.5c0.2-0.3,0.5-0.6,0.8-0.8c0.8-0.6,1.9-0.7,2.9-0.1c0.6,0.4,1.1,1,1.2,1.6c0.1,0.3,0.1,0.6,0.1,0.9
		c0,0.4-0.1,0.7-0.3,1.1l-3.8,6.5c1.1,0.2,2.3,0.2,3.5-0.1C120.5,742.1,122.9,738,122.1,733.9z"/>
</g>
<path id="XMLID_41_" class="st2" d="M713,364.4c0.4,1.4,1,2.8,1.7,4l-2.1,2.6c-0.7,0.8-0.6,2.1,0.2,2.8l3.5,3.5
	c0.8,0.8,2,0.8,2.8,0.2l2.6-2c1.3,0.8,2.7,1.4,4.2,1.8l0.4,3.3c0.1,1.1,1,1.9,2.1,1.9h5c1.1,0,2-0.8,2.1-1.9l0.4-3.2
	c1.6-0.4,3.1-1,4.5-1.8l2.5,2c0.8,0.7,2.1,0.6,2.8-0.2l3.5-3.5c0.8-0.8,0.8-2,0.2-2.8l-1.9-2.5c0.8-1.4,1.4-2.9,1.9-4.4l3-0.3
	c1.1-0.1,1.9-1,1.9-2.1v-5c0-1.1-0.8-2-1.9-2.1l-2.9-0.3c-0.4-1.5-1-3-1.8-4.4l1.8-2.3c0.7-0.8,0.6-2.1-0.2-2.8l-3.5-3.5
	c-0.8-0.8-2-0.8-2.8-0.2l-2.2,1.8c-1.4-0.8-3-1.5-4.6-1.9l-0.3-2.9c-0.1-1.1-1-1.9-2.1-1.9h-5c-1.1,0-2,0.8-2.1,1.9l-0.3,2.9
	c-1.7,0.4-3.2,1.1-4.7,2l-2.3-1.8c-0.8-0.7-2.1-0.6-2.8,0.2l-3.5,3.5c-0.8,0.8-0.8,2-0.2,2.8l1.9,2.4c-0.8,1.4-1.4,2.9-1.7,4.4
	l-3.1,0.4c-1.1,0.1-1.9,1-1.9,2.1v5c0,1.1,0.8,2,1.9,2.1L713,364.4z M731.1,350.9c4.6,0,8.3,3.7,8.3,8.3c0,4.6-3.7,8.3-8.3,8.3
	c-4.6,0-8.3-3.7-8.3-8.3C722.9,354.6,726.6,350.9,731.1,350.9z"/>
<path id="XMLID_33_" class="st3" d="M132.4,382.5c0.4,1.4,1,2.8,1.7,4l-2.1,2.6c-0.7,0.8-0.6,2.1,0.2,2.8l3.5,3.5
	c0.8,0.8,2,0.8,2.8,0.2l2.6-2c1.3,0.8,2.7,1.4,4.2,1.8l0.4,3.3c0.1,1.1,1,1.9,2.1,1.9h5c1.1,0,2-0.8,2.1-1.9l0.4-3.2
	c1.6-0.4,3.1-1,4.5-1.8l2.5,2c0.8,0.7,2.1,0.6,2.8-0.2l3.5-3.5c0.8-0.8,0.8-2,0.2-2.8l-1.9-2.5c0.8-1.4,1.4-2.9,1.9-4.4l3-0.3
	c1.1-0.1,1.9-1,1.9-2.1v-5c0-1.1-0.8-2-1.9-2.1l-2.9-0.3c-0.4-1.5-1-3-1.8-4.4l1.8-2.3c0.7-0.8,0.6-2.1-0.2-2.8l-3.5-3.5
	c-0.8-0.8-2-0.8-2.8-0.2l-2.2,1.8c-1.4-0.8-3-1.5-4.6-1.9l-0.3-2.9c-0.1-1.1-1-1.9-2.1-1.9h-5c-1.1,0-2,0.8-2.1,1.9l-0.3,2.9
	c-1.7,0.4-3.2,1.1-4.7,2l-2.3-1.8c-0.8-0.7-2.1-0.6-2.8,0.2l-3.5,3.5c-0.8,0.8-0.8,2-0.2,2.8l1.9,2.4c-0.8,1.4-1.4,2.9-1.7,4.4
	l-3.1,0.4c-1.1,0.1-1.9,1-1.9,2.1v5c0,1.1,0.8,2,1.9,2.1L132.4,382.5z M150.6,368.9c4.6,0,8.3,3.7,8.3,8.3c0,4.6-3.7,8.3-8.3,8.3
	c-4.6,0-8.3-3.7-8.3-8.3C142.3,372.7,146,368.9,150.6,368.9z"/>
<path id="XMLID_50_" class="st4" d="M456.9,354.1l-2.6-2.2c-0.8-0.7-2-0.7-2.8,0.1l-1.5,1.4c-1.2-0.6-2.5-1-3.9-1.3l-0.4-2
	c-0.2-1-1.2-1.8-2.2-1.7l-3.4,0.3c-1.1,0.1-1.9,1-1.9,2l-0.1,2c-1.3,0.5-2.6,1.1-3.7,2l-1.7-1.2c-0.9-0.6-2.1-0.4-2.8,0.4l-2.2,2.7
	c-0.7,0.8-0.7,2,0.1,2.8l1.5,1.6c-0.5,1.2-0.9,2.4-1.1,3.7l-2.2,0.4c-1,0.2-1.8,1.2-1.7,2.2l0.3,3.4c0.1,1.1,1,1.9,2,1.9l2.4,0.1
	c0.4,1.1,1,2.2,1.7,3.2l-1.3,2c-0.6,0.9-0.4,2.1,0.4,2.8l2.6,2.2c0.8,0.7,2,0.7,2.8-0.1l1.7-1.6c1.1,0.5,2.3,0.9,3.5,1.2l0.5,2.4
	c0.2,1,1.2,1.8,2.2,1.7l3.4-0.3c1.1-0.1,1.9-1,1.9-2l0.1-2.3c1.3-0.4,2.4-1,3.5-1.8l1.9,1.3c0.9,0.6,2.1,0.4,2.8-0.4l2.2-2.6
	c0.7-0.8,0.7-2-0.1-2.8l-1.5-1.6c0.6-1.2,1-2.4,1.2-3.7l2.1-0.4c1-0.2,1.8-1.2,1.7-2.2L462,364c-0.1-1.1-1-1.9-2-1.9l-2.1-0.1
	c-0.4-1.2-1-2.4-1.8-3.5l1.1-1.7C457.9,356,457.7,354.8,456.9,354.1z M443.9,374c-3.7,0.3-7-2.5-7.3-6.2c-0.3-3.7,2.5-7,6.2-7.3
	c3.7-0.3,7,2.5,7.3,6.2C450.4,370.4,447.6,373.7,443.9,374z"/>
<path id="XMLID_47_" class="st4" d="M1153.2,218.8l-2.6-2.2c-0.8-0.7-2-0.7-2.8,0.1l-1.5,1.4c-1.2-0.6-2.5-1-3.9-1.3l-0.4-2
	c-0.2-1-1.2-1.8-2.2-1.7l-3.4,0.3c-1.1,0.1-1.9,1-1.9,2l-0.1,2c-1.3,0.5-2.6,1.1-3.7,2l-1.7-1.2c-0.9-0.6-2.1-0.4-2.8,0.4l-2.2,2.7
	c-0.7,0.8-0.7,2,0.1,2.8l1.5,1.6c-0.5,1.2-0.9,2.4-1.1,3.7l-2.2,0.4c-1,0.2-1.8,1.2-1.7,2.2l0.3,3.4c0.1,1.1,1,1.9,2,1.9l2.4,0.1
	c0.4,1.1,1,2.2,1.7,3.2l-1.3,2c-0.6,0.9-0.4,2.1,0.4,2.8l2.6,2.2c0.8,0.7,2,0.7,2.8-0.1l1.7-1.6c1.1,0.5,2.3,0.9,3.5,1.2l0.5,2.4
	c0.2,1,1.2,1.8,2.2,1.7l3.4-0.3c1.1-0.1,1.9-1,1.9-2l0.1-2.3c1.3-0.4,2.4-1,3.5-1.8l1.9,1.3c0.9,0.6,2.1,0.4,2.8-0.4l2.2-2.6
	c0.7-0.8,0.7-2-0.1-2.8l-1.5-1.6c0.6-1.2,1-2.4,1.2-3.7l2.1-0.4c1-0.2,1.8-1.2,1.7-2.2l-0.3-3.4c-0.1-1.1-1-1.9-2-1.9l-2.1-0.1
	c-0.4-1.2-1-2.4-1.8-3.5l1.1-1.7C1154.2,220.7,1154,219.5,1153.2,218.8z M1140.2,238.7c-3.7,0.3-7-2.5-7.3-6.2
	c-0.3-3.7,2.5-7,6.2-7.3c3.7-0.3,7,2.5,7.3,6.2C1146.7,235.1,1143.9,238.4,1140.2,238.7z"/>
<path id="XMLID_5_" class="st2" d="M241.2,571.4l-2.6-2.2c-0.8-0.7-2-0.7-2.8,0.1l-1.5,1.4c-1.2-0.6-2.5-1-3.9-1.3l-0.4-2
	c-0.2-1-1.2-1.8-2.2-1.7l-3.4,0.3c-1.1,0.1-1.9,1-1.9,2l-0.1,2c-1.3,0.5-2.6,1.1-3.7,2l-1.7-1.2c-0.9-0.6-2.1-0.4-2.8,0.4l-2.2,2.7
	c-0.7,0.8-0.7,2,0.1,2.8l1.5,1.6c-0.5,1.2-0.9,2.4-1.1,3.7l-2.2,0.4c-1,0.2-1.8,1.2-1.7,2.2l0.3,3.4c0.1,1.1,1,1.9,2,1.9l2.4,0.1
	c0.4,1.1,1,2.2,1.7,3.2l-1.3,2c-0.6,0.9-0.4,2.1,0.4,2.8l2.6,2.2c0.8,0.7,2,0.7,2.8-0.1l1.7-1.6c1.1,0.5,2.3,0.9,3.5,1.2l0.5,2.4
	c0.2,1,1.2,1.8,2.2,1.7l3.4-0.3c1.1-0.1,1.9-1,1.9-2l0.1-2.3c1.3-0.4,2.4-1,3.5-1.8l1.9,1.3c0.9,0.6,2.1,0.4,2.8-0.4l2.2-2.6
	c0.7-0.8,0.7-2-0.1-2.8l-1.5-1.6c0.6-1.2,1-2.4,1.2-3.7l2.1-0.4c1-0.2,1.8-1.2,1.7-2.2l-0.3-3.4c-0.1-1.1-1-1.9-2-1.9l-2.1-0.1
	c-0.4-1.2-1-2.4-1.8-3.5l1.1-1.7C242.2,573.3,242,572.1,241.2,571.4z M228.2,591.3c-3.7,0.3-7-2.5-7.3-6.2c-0.3-3.7,2.5-7,6.2-7.3
	c3.7-0.3,7,2.5,7.3,6.2C234.7,587.7,231.9,591,228.2,591.3z"/>
<path id="XMLID_2_" class="st5" d="M121.4,95.4c-1.1,0.1-1.9,1-1.9,2.1l0,2.1c0,1.1,0.8,2,1.8,2.1l1.6,0.2c0.3,0.9,0.6,1.9,1.1,2.7
	l-1,1.2c-0.7,0.8-0.6,2,0.1,2.8l1.5,1.5c0.7,0.8,1.9,0.8,2.8,0.2l1.2-1c0.9,0.5,1.8,0.9,2.8,1.2l0.2,1.6c0.1,1.1,1,1.9,2.1,1.9
	l2.1,0c1.1,0,2-0.8,2.1-1.8l0.2-1.5c1.1-0.3,2.1-0.7,3-1.2l1.2,0.9c0.8,0.7,2,0.6,2.8-0.1l1.5-1.5c0.8-0.7,0.8-1.9,0.2-2.8l-0.9-1.2
	c0.6-0.9,1-1.9,1.3-2.9l1.4-0.1c1.1-0.1,1.9-1,1.9-2.1l0-2.1c0-1.1-0.8-2-1.8-2.1l-1.4-0.2c-0.3-1-0.6-2-1.1-2.9l0.8-1
	c0.7-0.8,0.6-2-0.1-2.8l-1.5-1.5c-0.7-0.8-1.9-0.8-2.8-0.2l-1,0.8c-1-0.6-2-1-3.1-1.3l-0.1-1.3c-0.1-1.1-1-1.9-2.1-1.9l-2.1,0
	c-1.1,0-2,0.8-2.1,1.8l-0.2,1.3c-1.1,0.3-2.2,0.7-3.2,1.3l-1-0.9c-0.8-0.7-2-0.6-2.8,0.1l-1.5,1.5c-0.8,0.7-0.8,1.9-0.2,2.8l0.9,1.2
	c-0.5,0.9-0.9,1.9-1.2,2.9L121.4,95.4z M135.1,93c3,0,5.5,2.5,5.4,5.6c0,3-2.5,5.5-5.6,5.4c-3,0-5.5-2.5-5.4-5.6
	C129.6,95.4,132.1,92.9,135.1,93z"/>
<path id="XMLID_44_" class="st4" d="M371.1,41.8c-0.9,0.1-1.6,0.9-1.6,1.8l0,1.8c0,0.9,0.7,1.7,1.6,1.8l1.4,0.2
	c0.2,0.8,0.5,1.6,1,2.3l-0.9,1.1c-0.6,0.7-0.5,1.8,0.1,2.4l1.3,1.3c0.6,0.7,1.7,0.7,2.4,0.2l1.1-0.8c0.8,0.5,1.6,0.8,2.4,1.1
	l0.1,1.4c0.1,0.9,0.9,1.6,1.8,1.6l1.8,0c0.9,0,1.7-0.7,1.8-1.6l0.2-1.3c0.9-0.2,1.8-0.6,2.6-1l1,0.8c0.7,0.6,1.8,0.5,2.4-0.1
	l1.3-1.3c0.7-0.6,0.7-1.7,0.2-2.4l-0.8-1c0.5-0.8,0.9-1.7,1.1-2.5l1.2-0.1c0.9-0.1,1.6-0.9,1.6-1.8l0-1.8c0-0.9-0.7-1.7-1.6-1.8
	l-1.2-0.2c-0.2-0.9-0.6-1.7-1-2.5l0.7-0.9c0.6-0.7,0.5-1.8-0.1-2.4l-1.3-1.3c-0.6-0.7-1.7-0.7-2.4-0.2l-0.9,0.7
	c-0.8-0.5-1.7-0.9-2.6-1.1l-0.1-1.1c-0.1-0.9-0.9-1.6-1.8-1.6l-1.8,0c-0.9,0-1.7,0.7-1.8,1.6l-0.1,1.1c-1,0.2-1.9,0.6-2.7,1.1
	l-0.9-0.7c-0.7-0.6-1.8-0.5-2.4,0.1l-1.3,1.3c-0.7,0.6-0.7,1.7-0.2,2.4l0.8,1c-0.5,0.8-0.8,1.7-1,2.5L371.1,41.8z M383,39.8
	c2.6,0,4.8,2.2,4.7,4.8c0,2.6-2.2,4.8-4.8,4.7c-2.6,0-4.8-2.2-4.7-4.8C378.2,41.8,380.4,39.7,383,39.8z"/>
<path id="XMLID_62_" class="st4" d="M1188.6,733c-0.9,0.1-1.6,0.9-1.6,1.8l0,1.8c0,0.9,0.7,1.7,1.6,1.8l1.4,0.2
	c0.2,0.8,0.5,1.6,1,2.3l-0.9,1.1c-0.6,0.7-0.5,1.8,0.1,2.4l1.3,1.3c0.6,0.7,1.7,0.7,2.4,0.2l1.1-0.8c0.8,0.5,1.6,0.8,2.4,1.1
	l0.1,1.4c0.1,0.9,0.9,1.6,1.8,1.6l1.8,0c0.9,0,1.7-0.7,1.8-1.6l0.2-1.3c0.9-0.2,1.8-0.6,2.6-1l1,0.8c0.7,0.6,1.8,0.5,2.4-0.1
	l1.3-1.3c0.7-0.6,0.7-1.7,0.2-2.4l-0.8-1c0.5-0.8,0.9-1.7,1.1-2.5l1.2-0.1c0.9-0.1,1.6-0.9,1.6-1.8l0-1.8c0-0.9-0.7-1.7-1.6-1.8
	l-1.2-0.2c-0.2-0.9-0.6-1.7-1-2.5l0.7-0.9c0.6-0.7,0.5-1.8-0.1-2.4l-1.3-1.3c-0.6-0.7-1.7-0.7-2.4-0.2l-0.9,0.7
	c-0.8-0.5-1.7-0.9-2.6-1.1l-0.1-1.1c-0.1-0.9-0.9-1.6-1.8-1.6l-1.8,0c-0.9,0-1.7,0.7-1.8,1.6l-0.1,1.1c-1,0.2-1.9,0.6-2.7,1.1
	l-0.9-0.7c-0.7-0.6-1.8-0.5-2.4,0.1l-1.3,1.3c-0.7,0.6-0.7,1.7-0.2,2.4l0.8,1c-0.5,0.8-0.8,1.7-1,2.5L1188.6,733z M1200.5,730.9
	c2.6,0,4.8,2.2,4.7,4.8c0,2.6-2.2,4.8-4.8,4.7c-2.6,0-4.8-2.2-4.7-4.8C1195.6,733,1197.8,730.9,1200.5,730.9z"/>
<g id="XMLID_8_" class="st0">
	
		<rect id="XMLID_12_" x="996.9" y="634.6" transform="matrix(0.723 -0.6909 0.6909 0.723 -173.2185 870.2699)" class="st1" width="3.3" height="33"/>
	<polygon id="XMLID_11_" class="st1" points="985.7,632.6 978.2,627.1 975.6,629.7 980.6,637.4 980.6,637.4 985.1,642.1 
		990.2,637.2 985.7,632.6 	"/>
	<path id="XMLID_10_" class="st6" d="M1035,681.6c0.5,0.6,0.5,1.4,0,2l-5.7,5.4c-0.6,0.5-1.4,0.5-2,0l-14.9-15.6
		c-0.5-0.6-1.3-1.5-1.8-2.1l-8.4-10.6c-0.5-0.6-0.4-1.5,0.1-2l3.6-3.4c0.6-0.5,1.5-0.5,2,0l10.4,9.2c0.6,0.5,1.5,1.4,2,1.9
		L1035,681.6z"/>
	<path id="XMLID_9_" class="st6" d="M1010.6,653.7c0.5,0.6,0.5,1.4,0,2l-8,7.6c-0.6,0.5-1.4,0.5-2,0l-0.7-0.7c-0.5-0.6-0.5-1.4,0-2
		l8-7.6c0.6-0.5,1.4-0.5,2,0L1010.6,653.7z"/>
</g>
<g id="XMLID_13_" class="st0">
	<path id="XMLID_16_" class="st1" d="M732.1,77.2c1.7,2.7,2.7,4.6,2.2,5.9c0.7,0.6,1.4,1.2,1.8,1.9l0.9,1.4c0.6,0.9,0.8,1.9,0.8,2.9
		c0.1,0.2,0.2,0.3,0.3,0.5l0.3,0.6c0,0,0,0.1,0,0.1l0.3,0.6c0.2,0.4,0.3,0.8,0.4,1.2c0,0.1,0.1,0.3,0.2,0.4c0,0,0,0,0,0.1l0.1,0.4
		c0.1,0.4,0.3,0.9,0.3,1.4l0,0.1c0.1,0.6,0.2,1.1,0.3,1.7l0,0.3c0,0.2,0,0.4,0,0.7l0,0.8c0,0.5,0,1-0.1,1.4l0,0.3
		c0,0.5-0.1,0.9-0.2,1.2c0,0.1-0.1,0.2-0.1,0.4c0,0.1,0,0.1,0,0.2c0,0.2-0.1,0.3-0.2,0.5l-0.2,0.6c0,0.1-0.1,0.2-0.1,0.3
		c-0.1,0.2-0.2,0.5-0.3,0.7l-0.7,1.4c-0.2,0.4-0.7,0.6-1.1,0.5c-0.2-0.1-0.4-0.2-0.6-0.4c-0.1-0.2-0.2-0.4-0.2-0.6l0.1-1.5
		c0-0.1,0-0.3,0-0.5c0-0.1,0-0.3,0-0.4l0-0.6c0-0.1,0-0.2,0-0.2c0-0.1,0-0.2,0-0.2c0-0.1-0.1-0.3-0.1-0.4c0-0.3-0.1-0.5-0.2-0.7
		c0-0.1-0.1-0.2-0.1-0.3c-0.1-0.3-0.2-0.6-0.3-0.8c0,0,0,0,0,0l-0.3-0.6c-0.1-0.1-0.1-0.2-0.2-0.3c0-0.1-0.1-0.2-0.1-0.2
		c-0.2-0.3-0.4-0.6-0.6-0.9l-0.1-0.1c-0.1-0.2-0.3-0.4-0.5-0.6c-0.1-0.1-0.1-0.2-0.2-0.3c-0.1-0.1-0.2-0.2-0.3-0.3
		c-0.2-0.2-0.3-0.3-0.5-0.5l-0.4-0.3l-0.4-0.3c-0.1-0.1-0.3-0.2-0.4-0.3c-0.1-0.1-0.1-0.1-0.2-0.1c-0.1,0-0.1-0.1-0.2-0.1
		c-0.1-0.1-0.2-0.1-0.3-0.2l-0.1-0.1c0,0,0,0,0,0l-3.7-5.2c-0.1-0.2-0.1-0.4-0.2-0.6c-1.3,0-3-2.2-4.7-4.6L732.1,77.2z"/>
	<path id="XMLID_15_" class="st1" d="M726.5,88.8c0.1-0.1,0.3-0.2,0.4-0.2c0,0,0,0,0,0l4.3,4.9c-0.2,0.2-0.9,0.7-1.1,0.8l-10.2,6.7
		l0,0l-3.7-5.4L726.5,88.8z"/>
	<path id="XMLID_14_" class="st6" d="M685.5,113.2l21.5-14.1c0.2-0.1,0.4-0.2,0.6-0.3l8.5-3.3l0,0l3.7,5.4l-6.7,6.7
		c-0.1,0.1-0.2,0.2-0.4,0.3l-21.5,14.1c-2.4,1.6-5.6,0.9-7.2-1.5C682.4,118,683.1,114.8,685.5,113.2z"/>
</g>
<g id="XMLID_56_" class="st0">
	<path id="XMLID_59_" class="st1" d="M470.6,518.6c1.7,2.7,2.7,4.6,2.2,5.9c0.7,0.6,1.4,1.2,1.8,1.9l0.9,1.4
		c0.6,0.9,0.8,1.9,0.8,2.9c0.1,0.2,0.2,0.3,0.3,0.5l0.3,0.6c0,0,0,0.1,0,0.1l0.3,0.6c0.2,0.4,0.3,0.8,0.4,1.2c0,0.1,0.1,0.3,0.2,0.4
		c0,0,0,0,0,0.1l0.1,0.4c0.1,0.4,0.3,0.9,0.3,1.4l0,0.1c0.1,0.6,0.2,1.1,0.3,1.7l0,0.3c0,0.2,0,0.4,0,0.7l0,0.8c0,0.5,0,1-0.1,1.4
		l0,0.3c0,0.5-0.1,0.9-0.2,1.2c0,0.1-0.1,0.2-0.1,0.4c0,0.1,0,0.1,0,0.2c0,0.2-0.1,0.3-0.2,0.5l-0.2,0.6c0,0.1-0.1,0.2-0.1,0.3
		c-0.1,0.2-0.2,0.5-0.3,0.7l-0.7,1.4c-0.2,0.4-0.7,0.6-1.1,0.5c-0.2-0.1-0.4-0.2-0.6-0.4c-0.1-0.2-0.2-0.4-0.2-0.6l0.1-1.5
		c0-0.1,0-0.3,0-0.5c0-0.1,0-0.3,0-0.4l0-0.6c0-0.1,0-0.2,0-0.2c0-0.1,0-0.2,0-0.2c0-0.1-0.1-0.3-0.1-0.4c0-0.3-0.1-0.5-0.2-0.7
		c0-0.1-0.1-0.2-0.1-0.3c-0.1-0.3-0.2-0.6-0.3-0.8c0,0,0,0,0,0l-0.3-0.6c-0.1-0.1-0.1-0.2-0.2-0.3c0-0.1-0.1-0.2-0.1-0.2
		c-0.2-0.3-0.4-0.6-0.6-0.9l-0.1-0.1c-0.1-0.2-0.3-0.4-0.5-0.6c-0.1-0.1-0.1-0.2-0.2-0.3c-0.1-0.1-0.2-0.2-0.3-0.3
		c-0.2-0.2-0.3-0.3-0.5-0.5l-0.4-0.3l-0.4-0.3c-0.1-0.1-0.3-0.2-0.4-0.3c-0.1-0.1-0.1-0.1-0.2-0.1c-0.1,0-0.1-0.1-0.2-0.1
		c-0.1-0.1-0.2-0.1-0.3-0.2l-0.1-0.1c0,0,0,0,0,0l-3.7-5.2c-0.1-0.2-0.1-0.4-0.2-0.6c-1.3,0-3-2.2-4.7-4.6L470.6,518.6z"/>
	<path id="XMLID_58_" class="st1" d="M465,530.2c0.1-0.1,0.3-0.2,0.4-0.2c0,0,0,0,0,0l4.3,4.9c-0.2,0.2-0.9,0.7-1.1,0.8l-10.2,6.7
		l0,0l-3.7-5.4L465,530.2z"/>
	<path id="XMLID_57_" class="st6" d="M424,554.6l21.5-14.1c0.2-0.1,0.4-0.2,0.6-0.3l8.5-3.3l0,0l3.7,5.4l-6.7,6.7
		c-0.1,0.1-0.2,0.2-0.4,0.3l-21.5,14.1c-2.4,1.6-5.6,0.9-7.2-1.5C421,559.4,421.6,556.2,424,554.6z"/>
</g>
<path id="XMLID_24_" class="st4" d="M1039.8,412.1c-2.5,0.3-4.3,2.3-4.4,4.8l-0.1,4.9c0,2.5,1.8,4.6,4.2,4.9l3.6,0.5
	c0.6,2.2,1.5,4.3,2.6,6.3l-2.3,2.9c-1.6,1.9-1.4,4.7,0.3,6.4l3.4,3.5c1.7,1.8,4.5,2,6.4,0.4l2.9-2.2c2,1.2,4.2,2.2,6.4,2.8l0.4,3.7
	c0.3,2.4,2.3,4.3,4.8,4.4l4.9,0.1c2.5,0,4.6-1.8,4.9-4.2l0.4-3.5c2.4-0.6,4.8-1.5,7-2.7l2.7,2.2c1.9,1.6,4.7,1.4,6.4-0.3l3.5-3.4
	c1.8-1.7,2-4.5,0.4-6.4l-2.1-2.7c1.3-2.1,2.3-4.4,3-6.8l3.2-0.3c2.4-0.3,4.3-2.3,4.3-4.8l0.1-4.9c0-2.5-1.8-4.6-4.2-4.9l-3.1-0.4
	c-0.6-2.4-1.5-4.7-2.7-6.8l2-2.4c1.6-1.9,1.4-4.7-0.3-6.4l-3.4-3.5c-1.7-1.8-4.5-2-6.4-0.4l-2.4,1.8c-2.2-1.3-4.6-2.4-7.1-3.1
	l-0.3-3.1c-0.3-2.4-2.3-4.3-4.8-4.4l-4.9-0.1c-2.5,0-4.6,1.8-4.9,4.2l-0.4,3c-2.6,0.7-5,1.7-7.3,3l-2.4-2c-1.9-1.6-4.7-1.4-6.4,0.3
	l-3.5,3.5c-1.8,1.7-2,4.5-0.4,6.4l2.1,2.7c-1.2,2.1-2.2,4.4-2.8,6.8L1039.8,412.1z M1071.5,406.6c7.1,0.1,12.7,5.9,12.6,12.9
	c-0.1,7-5.9,12.7-12.9,12.6c-7-0.1-12.7-5.9-12.6-12.9C1058.6,412.1,1064.4,406.5,1071.5,406.6z"/>
<path id="XMLID_32_" class="st2" d="M326.3,730.8c-1.6,0.2-2.9,1.6-2.9,3.2l0,3.3c0,1.7,1.2,3.1,2.8,3.3l2.4,0.3
	c0.4,1.5,1,2.9,1.7,4.2l-1.6,1.9c-1,1.3-1,3.1,0.2,4.3l2.3,2.4c1.2,1.2,3,1.3,4.3,0.3l1.9-1.5c1.4,0.8,2.8,1.4,4.3,1.9l0.3,2.5
	c0.2,1.6,1.6,2.9,3.2,2.9l3.3,0c1.7,0,3.1-1.2,3.3-2.8l0.3-2.4c1.6-0.4,3.2-1,4.7-1.8l1.8,1.5c1.3,1,3.1,1,4.3-0.2l2.4-2.3
	c1.2-1.2,1.3-3,0.3-4.3l-1.4-1.8c0.9-1.4,1.5-3,2-4.6l2.2-0.2c1.6-0.2,2.9-1.6,2.9-3.2l0-3.3c0-1.7-1.2-3.1-2.8-3.3l-2.1-0.3
	c-0.4-1.6-1-3.1-1.8-4.6l1.3-1.6c1-1.3,1-3.1-0.2-4.3l-2.3-2.4c-1.2-1.2-3-1.3-4.3-0.3l-1.6,1.2c-1.5-0.9-3.1-1.6-4.8-2.1l-0.2-2.1
	c-0.2-1.6-1.6-2.9-3.2-2.9l-3.3,0c-1.7,0-3.1,1.2-3.3,2.8l-0.3,2c-1.7,0.4-3.4,1.1-4.9,2l-1.6-1.3c-1.3-1-3.1-1-4.3,0.2l-2.4,2.3
	c-1.2,1.2-1.3,3-0.3,4.3l1.4,1.8c-0.8,1.4-1.4,3-1.9,4.6L326.3,730.8z M347.6,727.1c4.7,0.1,8.5,4,8.5,8.7c-0.1,4.7-4,8.5-8.7,8.5
	c-4.7-0.1-8.5-4-8.5-8.7C338.9,730.8,342.8,727,347.6,727.1z"/>
<path id="XMLID_38_" class="st3" d="M656.3,545.5c-1.6,0.2-2.9,1.6-2.9,3.2l0,3.3c0,1.7,1.2,3.1,2.8,3.3l2.4,0.3
	c0.4,1.5,1,2.9,1.7,4.2l-1.6,1.9c-1,1.3-1,3.1,0.2,4.3l2.3,2.4c1.2,1.2,3,1.3,4.3,0.3l1.9-1.5c1.4,0.8,2.8,1.4,4.3,1.9l0.3,2.5
	c0.2,1.6,1.6,2.9,3.2,2.9l3.3,0c1.7,0,3.1-1.2,3.3-2.8l0.3-2.4c1.6-0.4,3.2-1,4.7-1.8l1.8,1.5c1.3,1,3.1,1,4.3-0.2l2.4-2.3
	c1.2-1.2,1.3-3,0.3-4.3l-1.4-1.8c0.9-1.4,1.5-3,2-4.6l2.2-0.2c1.6-0.2,2.9-1.6,2.9-3.2l0-3.3c0-1.7-1.2-3.1-2.8-3.3l-2.1-0.3
	c-0.4-1.6-1-3.1-1.8-4.6l1.3-1.6c1-1.3,1-3.1-0.2-4.3l-2.3-2.4c-1.2-1.2-3-1.3-4.3-0.3l-1.6,1.2c-1.5-0.9-3.1-1.6-4.8-2.1l-0.2-2.1
	c-0.2-1.6-1.6-2.9-3.2-2.9l-3.3,0c-1.7,0-3.1,1.2-3.3,2.8l-0.3,2c-1.7,0.4-3.4,1.1-4.9,2l-1.6-1.3c-1.3-1-3.1-1-4.3,0.2l-2.4,2.3
	c-1.2,1.2-1.3,3-0.3,4.3l1.4,1.8c-0.8,1.4-1.4,3-1.9,4.6L656.3,545.5z M677.6,541.8c4.7,0.1,8.5,4,8.5,8.7c-0.1,4.7-4,8.5-8.7,8.5
	c-4.7-0.1-8.5-4-8.5-8.7C669,545.5,672.9,541.7,677.6,541.8z"/>
<path id="XMLID_27_" class="st2" d="M938.1,147.9c-0.9,0.1-1.6,0.9-1.6,1.8l0,1.8c0,0.9,0.7,1.7,1.6,1.8l1.4,0.2
	c0.2,0.8,0.5,1.6,1,2.3l-0.9,1.1c-0.6,0.7-0.5,1.8,0.1,2.4l1.3,1.3c0.6,0.7,1.7,0.7,2.4,0.2l1.1-0.8c0.8,0.5,1.6,0.8,2.4,1.1
	l0.1,1.4c0.1,0.9,0.9,1.6,1.8,1.6l1.8,0c0.9,0,1.7-0.7,1.8-1.6l0.2-1.3c0.9-0.2,1.8-0.6,2.6-1l1,0.8c0.7,0.6,1.8,0.5,2.4-0.1
	l1.3-1.3c0.7-0.6,0.7-1.7,0.2-2.4l-0.8-1c0.5-0.8,0.9-1.7,1.1-2.5l1.2-0.1c0.9-0.1,1.6-0.9,1.6-1.8l0-1.8c0-0.9-0.7-1.7-1.6-1.8
	l-1.2-0.2c-0.2-0.9-0.6-1.7-1-2.5l0.7-0.9c0.6-0.7,0.5-1.8-0.1-2.4l-1.3-1.3c-0.6-0.7-1.7-0.7-2.4-0.2l-0.9,0.7
	c-0.8-0.5-1.7-0.9-2.6-1.1l-0.1-1.1c-0.1-0.9-0.9-1.6-1.8-1.6l-1.8,0c-0.9,0-1.7,0.7-1.8,1.6l-0.1,1.1c-1,0.2-1.9,0.6-2.7,1.1
	l-0.9-0.7c-0.7-0.6-1.8-0.5-2.4,0.1l-1.3,1.3c-0.7,0.6-0.7,1.7-0.2,2.4l0.8,1c-0.5,0.8-0.8,1.7-1,2.5L938.1,147.9z M949.9,145.8
	c2.6,0,4.8,2.2,4.7,4.8c0,2.6-2.2,4.8-4.8,4.7c-2.6,0-4.8-2.2-4.7-4.8C945.1,147.9,947.3,145.8,949.9,145.8z"/>
<path class="st4" d="M847.5,384.5c-0.7,0.1-1.2,0.6-1.2,1.3l0,1.3c0,0.7,0.5,1.2,1.1,1.3l1,0.1c0.2,0.6,0.4,1.2,0.7,1.7l-0.6,0.8
	c-0.4,0.5-0.4,1.3,0.1,1.7l0.9,0.9c0.5,0.5,1.2,0.5,1.7,0.1l0.8-0.6c0.5,0.3,1.1,0.6,1.7,0.8l0.1,1c0.1,0.7,0.6,1.2,1.3,1.2l1.3,0
	c0.7,0,1.2-0.5,1.3-1.1l0.1-1c0.7-0.2,1.3-0.4,1.9-0.7l0.7,0.6c0.5,0.4,1.3,0.4,1.7-0.1l0.9-0.9c0.5-0.5,0.5-1.2,0.1-1.7l-0.6-0.7
	c0.3-0.6,0.6-1.2,0.8-1.8l0.9-0.1c0.7-0.1,1.2-0.6,1.2-1.3l0-1.3c0-0.7-0.5-1.2-1.1-1.3l-0.8-0.1c-0.2-0.6-0.4-1.3-0.7-1.8l0.5-0.6
	c0.4-0.5,0.4-1.3-0.1-1.7l-0.9-0.9c-0.5-0.5-1.2-0.5-1.7-0.1l-0.6,0.5c-0.6-0.4-1.2-0.6-1.9-0.8l-0.1-0.8c-0.1-0.7-0.6-1.2-1.3-1.2
	l-1.3,0c-0.7,0-1.2,0.5-1.3,1.1l-0.1,0.8c-0.7,0.2-1.4,0.5-2,0.8l-0.7-0.5c-0.5-0.4-1.3-0.4-1.7,0.1l-1,0.9
	c-0.5,0.5-0.5,1.2-0.1,1.7l0.6,0.7c-0.3,0.6-0.6,1.2-0.7,1.8L847.5,384.5z M856.1,383c1.9,0,3.4,1.6,3.4,3.5c0,1.9-1.6,3.4-3.5,3.4
	c-1.9,0-3.4-1.6-3.4-3.5C852.6,384.5,854.2,383,856.1,383z"/>
<path id="XMLID_53_" class="st4" d="M967.1,697c-0.7,0.1-1.2,0.6-1.2,1.3l0,1.3c0,0.7,0.5,1.2,1.1,1.3l1,0.1
	c0.2,0.6,0.4,1.2,0.7,1.7l-0.6,0.8c-0.4,0.5-0.4,1.3,0.1,1.7l0.9,0.9c0.5,0.5,1.2,0.5,1.7,0.1l0.8-0.6c0.5,0.3,1.1,0.6,1.7,0.8
	l0.1,1c0.1,0.7,0.6,1.2,1.3,1.2l1.3,0c0.7,0,1.2-0.5,1.3-1.1l0.1-1c0.7-0.2,1.3-0.4,1.9-0.7l0.7,0.6c0.5,0.4,1.3,0.4,1.7-0.1
	l0.9-0.9c0.5-0.5,0.5-1.2,0.1-1.7l-0.6-0.7c0.3-0.6,0.6-1.2,0.8-1.8l0.9-0.1c0.7-0.1,1.2-0.6,1.2-1.3l0-1.3c0-0.7-0.5-1.2-1.1-1.3
	l-0.8-0.1c-0.2-0.6-0.4-1.3-0.7-1.8l0.5-0.6c0.4-0.5,0.4-1.3-0.1-1.7l-0.9-0.9c-0.5-0.5-1.2-0.5-1.7-0.1l-0.6,0.5
	c-0.6-0.4-1.2-0.6-1.9-0.8l-0.1-0.8c-0.1-0.7-0.6-1.2-1.3-1.2l-1.3,0c-0.7,0-1.2,0.5-1.3,1.1l-0.1,0.8c-0.7,0.2-1.4,0.5-2,0.8
	l-0.7-0.5c-0.5-0.4-1.3-0.4-1.7,0.1l-1,0.9c-0.5,0.5-0.5,1.2-0.1,1.7l0.6,0.7c-0.3,0.6-0.6,1.2-0.7,1.8L967.1,697z M975.7,695.5
	c1.9,0,3.4,1.6,3.4,3.5c0,1.9-1.6,3.4-3.5,3.4c-1.9,0-3.4-1.6-3.4-3.5C972.2,697,973.8,695.4,975.7,695.5z"/>
<g id="XMLID_22_" class="st0">
	<path id="XMLID_23_" class="st6" d="M925,307.8l-0.4-0.5c-0.9-0.9-1.8-1.5-2.9-2l0-28.8c1-0.5,2-1.1,2.9-2l0.4-0.5
		c3.4-3.9,3.3-9.8-0.4-13.5c-1.1-1.1-2.4-1.8-3.7-2.3v9.3c0,0.5-0.1,0.9-0.3,1.4c-0.5,1.1-1.7,1.9-3,1.9c-0.9,0-1.7-0.4-2.3-1
		c-0.3-0.3-0.5-0.6-0.7-1c-0.2-0.4-0.3-0.9-0.3-1.4l0-9.3c-1.4,0.5-2.6,1.2-3.7,2.3c-3.7,3.7-3.8,9.6-0.4,13.5l0.4,0.5
		c0.9,0.9,1.8,1.5,2.9,2v28.8c-1,0.5-2,1.1-2.9,2l-0.4,0.5c-3.4,3.9-3.3,9.8,0.4,13.5c1.1,1.1,2.4,1.8,3.7,2.3v-9.3
		c0-0.5,0.1-1,0.3-1.4c0.5-1.1,1.7-1.9,3-1.9c0.9,0,1.7,0.4,2.3,1c0.3,0.3,0.5,0.6,0.7,1c0.2,0.4,0.3,0.9,0.3,1.4l0,9.3
		c1.4-0.5,2.6-1.2,3.7-2.3C928.3,317.6,928.4,311.7,925,307.8z"/>
</g>
<g id="XMLID_65_" class="st0">
	<path id="XMLID_66_" class="st6" d="M1180,87.2l0.4-0.5c0.7-1,1.2-2,1.5-3.1l28.5-4.4c0.6,1,1.4,1.8,2.4,2.6l0.6,0.3
		c4.4,2.8,10.2,1.8,13.3-2.5c0.9-1.2,1.5-2.6,1.7-4l-9.2,1.4c-0.5,0.1-1,0-1.4-0.1c-1.2-0.3-2.2-1.3-2.4-2.7
		c-0.1-0.9,0.1-1.8,0.6-2.5c0.2-0.3,0.5-0.6,0.9-0.8c0.4-0.3,0.8-0.4,1.3-0.5l9.2-1.4c-0.7-1.3-1.6-2.4-2.8-3.3
		c-4.2-3.1-10.1-2.3-13.4,1.6l-0.5,0.5c-0.7,1-1.2,2-1.5,3.1l-28.5,4.4c-0.6-1-1.4-1.8-2.4-2.5l-0.6-0.3c-4.4-2.8-10.2-1.8-13.3,2.5
		c-0.9,1.2-1.5,2.6-1.7,4l9.2-1.4c0.5-0.1,1,0,1.4,0.1c1.2,0.3,2.2,1.3,2.4,2.7c0.1,0.9-0.1,1.8-0.6,2.5c-0.2,0.3-0.5,0.6-0.9,0.8
		c-0.4,0.3-0.8,0.4-1.3,0.5l-9.2,1.4c0.7,1.3,1.6,2.4,2.8,3.3C1170.8,91.9,1176.7,91.1,1180,87.2z"/>
</g>
<g id="XMLID_17_" class="st0">
	
		<rect id="XMLID_21_" x="540.7" y="193.6" transform="matrix(0.8183 -0.5748 0.5748 0.8183 -20.3208 349.1301)" class="st1" width="2.6" height="26.3"/>
	<polygon id="XMLID_20_" class="st1" points="534.1,190.6 528.9,185.4 526.5,187.1 529.6,193.8 529.5,193.8 532.5,198 537.1,194.8 
		534.1,190.6 	"/>
	<path id="XMLID_19_" class="st6" d="M567.1,235c0.4,0.5,0.2,1.2-0.3,1.5l-5.1,3.6c-0.5,0.3-1.2,0.2-1.5-0.3l-9.9-14
		c-0.3-0.5-0.9-1.3-1.2-1.9l-5.3-9.4c-0.3-0.5-0.1-1.2,0.4-1.6l3.2-2.3c0.5-0.4,1.2-0.3,1.6,0.2l7.1,8.5c0.4,0.5,1,1.3,1.3,1.8
		L567.1,235z"/>
	<path id="XMLID_18_" class="st6" d="M551.2,210.2c0.3,0.5,0.2,1.2-0.3,1.5l-7.2,5.1c-0.5,0.3-1.2,0.2-1.5-0.3l-0.5-0.7
		c-0.3-0.5-0.2-1.2,0.3-1.5l7.2-5.1c0.5-0.3,1.2-0.2,1.5,0.3L551.2,210.2z"/>
</g>
</svg>
